<svg xmlns="http://www.w3.org/2000/svg" width="404.636" height="377.368" viewBox="0 0.633 404.636 377.368"><g data-name="Group 320"><g data-name="Group 11"><g data-name="Group 3"><g data-name="Group 3" clip-path="url(&quot;#a&quot;)"><path d="M84.392 354.628C53.88 335.2-27.073 249.193 9.151 141.4 30.958 76.507 56.555 6.064 179.51 1.114 302.463-3.835 411.368 27.746 404.31 172.92c-4.166 85.712 1.038 207.63-107.396 205.039-79.653-1.906-167.361 5.42-212.523-23.332" fill="#0274bc" fill-rule="evenodd" data-name="Fill 1"/></g></g><g data-name="Group 6"><g data-name="Group 6" transform="translate(61.027 334.641)" clip-path="url(&quot;#b&quot;)"><path d="M.075.426c8.9 8.99 17.125 15.634 23.29 19.561C68.527 48.74 156.234 41.413 235.888 43.32c41.585.994 66.457-16.327 81.553-42.893H.075Z" fill="#faedd2" fill-rule="evenodd" data-name="Fill 4"/></g></g><path d="m268.593 335.067 81.501 16.585 4.352-2.504v-7.6l-85.853-6.481Z" fill="#7eacc9" fill-rule="evenodd" data-name="Fill 7"/></g><path d="M131 335h138V54H131v281Z" fill="#d3e6f2" fill-rule="evenodd" data-name="Fill 12"/><g data-name="Group 25"><path d="M272.379 335.315H127.714v-65.726s18.583-7.499 43.432-7.499c25.489 0 101.233 7.499 101.233 7.499v65.726Z" fill="#f5d798" fill-rule="evenodd" data-name="Fill 13"/><path d="m26.877 177.906-.567 1.543 58.1.47-.705-67.22-1.315-1.9-55.513 67.107Z" fill="#d3e6f2" fill-rule="evenodd" data-name="Fill 15"/><path d="M241.816 333.836h-79.968a2.518 2.518 0 0 1-2.497-2.829l2.904-23.41a2.516 2.516 0 0 1 2.497-2.208h74.16c1.27 0 2.34.947 2.496 2.208l2.905 23.41a2.518 2.518 0 0 1-2.497 2.83" fill="#f5d798" fill-rule="evenodd" data-name="Fill 17"/><path d="M278.024 335.315h-11.29V57.016H133.358v278.299h-11.29v-289.6h155.955v289.6Z" fill="#fff" fill-rule="evenodd" data-name="Fill 19"/><path d="M172.771 324.45c0-4.451 13.586-8.059 30.345-8.059S233.46 320 233.46 324.45c0 4.45-13.585 8.058-30.344 8.058-16.76 0-30.345-3.608-30.345-8.058" fill="#d3e6f2" fill-rule="evenodd" data-name="Fill 21"/><path d="m131.007 54.19 2.352 2.826h133.139l2.588-2.826h-138.08Z" fill="#7eacc9" fill-rule="evenodd" data-name="Fill 23"/></g><path d="M268 54.078v281.71L349 349V47l-81 7.078Z" fill="#fff" fill-rule="evenodd" data-name="Fill 26"/><g data-name="Group 31"><path d="M338.976 212.324v-.001l-63.859-6.57V63.37l63.859-3.519v152.473ZM336.87 62.091l-59.649 3.288v138.459l59.649 6.136V62.09Z" fill="#d3e6f2" fill-rule="evenodd" data-name="Fill 27"/><path d="M338.976 337.058v-.001l-63.859-10.178V215.37l63.859 7.639v114.048Zm-61.754-119.3v107.31l59.649 9.506V224.892l-59.649-7.134Z" fill="#d3e6f2" fill-rule="evenodd" data-name="Fill 29"/></g><path d="m349 47 5 1.415V348.29l-5 .709V47Z" fill="#d3e6f2" fill-rule="evenodd" data-name="Fill 32"/><g data-name="Group 50"><path d="m345.125 211.202-2.888-.203a1.983 1.983 0 0 1-1.819-1.95v-18.56c0-1.007.815-1.766 1.819-1.695l2.888.201c1.005.071 1.82.945 1.82 1.951v18.56a1.676 1.676 0 0 1-1.82 1.696" fill="#7098b3" fill-rule="evenodd" data-name="Fill 33"/><path d="m344.57 211.202-2.887-.203a1.983 1.983 0 0 1-1.82-1.95v-18.56c0-1.007.814-1.766 1.82-1.695l2.887.201c1.005.071 1.82.945 1.82 1.951v18.56a1.676 1.676 0 0 1-1.82 1.696" fill="#7eacc9" fill-rule="evenodd" data-name="Fill 35"/><path d="m352.639 205.39-1.56-.098c-.544-.033-.985-.454-.985-.938v-8.932c0-.484.44-.85.985-.816l1.56.098c.543.033.984.453.984.938v8.932c0 .485-.44.85-.984.816" fill="#7098b3" fill-rule="evenodd" data-name="Fill 37"/><path d="M340.447 199.998a2.68 2.68 0 0 1 2.679-2.684 2.68 2.68 0 0 1 2.678 2.684 2.68 2.68 0 0 1-2.678 2.684 2.681 2.681 0 0 1-2.679-2.684" fill="#7098b3" fill-rule="evenodd" data-name="Fill 39"/><path d="M305.874 119.539a1.53 1.53 0 0 1 1.529-1.532 1.53 1.53 0 0 1 1.529 1.532 1.53 1.53 0 0 1-1.53 1.532 1.53 1.53 0 0 1-1.528-1.532" fill="#d3e6f2" fill-rule="evenodd" data-name="Fill 41"/><path d="M306.238 119.22a.76.76 0 1 1 1.52-.002.76.76 0 0 1-1.52.003" fill="#7eacc9" fill-rule="evenodd" data-name="Fill 43"/><path d="M342.597 198.67s-10.261-1.238-12.555-1.65c-2.293-.413-2 2.48.706 2.978 2.705.498 10.526 1.146 11.849 1.146 1.323 0 1.563-2.285 0-2.475" fill="#d3e6f2" fill-rule="evenodd" data-name="Fill 45"/><g data-name="Group 50" clip-path="url(&quot;#c&quot;)"><path d="M26.397 177.505h55.51v-67.172h-55.51v67.172Z" fill="#fff" fill-rule="evenodd" data-name="Fill 47"/><path d="M82.966 178.567v-.001H25.34v-69.294h57.627v69.294Zm-55.51-67.174v65.051h53.393v-65.05H27.455Z" fill="#e8dec8" fill-rule="evenodd" data-name="Fill 49"/></g></g><g data-name="Group 62"><g data-name="Group 53"><g data-name="Group 53" transform="translate(43.513 119.95)" clip-path="url(&quot;#d&quot;)"><path d="M7.36 81.412a.357.357 0 0 1-.335-.459 122.757 122.757 0 0 1 11.398-26.441c-.433.091-.868.168-1.294.23-.725.104-1.44.154-2.185.154-2.267 0-4.34-.476-6.536-.98-.96-.222-1.954-.45-2.978-.639-1.501-.275-3.37-.618-4.38-2.052-1.743-2.47-.425-4.836.85-7.124l.063-.113c.169-.305.328-.592.483-.885a1.254 1.254 0 0 1-.263-.997c.083-.456.413-.769.679-1.02l.05-.05c.18-.171.354-.348.52-.526a3.617 3.617 0 0 0-.02-1.321c-.078-.372-.166-.794.111-1.138.23-.285.569-.33.9-.337.282.004.548.035.814.097.31-.743.456-1.482.435-2.198-.041-1.381-.7-2.83-1.805-3.974-.184-.191-.427-.384-.726-.617-.876-.682-2.074-1.617-1.473-3.08.24-.583.743-.96 1.147-1.263l4.349-3.253c.879-.658 1.876-1.404 2.465-2.397.778-1.311.812-2.878.85-4.537.01-.536.024-1.202.08-1.827.497-5.675 3.59-10.338 8.273-12.474C22.86.355 27.52.17 31.264.024h.012L31.3.022c.183 0 .333.15.34.342a.356.356 0 0 1-.337.37c-3.687.144-8.277.325-12.183 2.106-4.448 2.028-7.388 6.471-7.863 11.887-.052.587-.066 1.221-.078 1.78-.037 1.68-.077 3.417-.95 4.888-.66 1.112-1.714 1.902-2.644 2.6l-.005.003-4.345 3.25-.008.005c-.35.264-.748.564-.913.96-.366.892.259 1.467 1.254 2.244.28.219.57.445.8.682 1.228 1.273 1.959 2.895 2.005 4.451.024.796-.133 1.617-.469 2.44.774.327 1.432.872 2.07 1.4l.021.018.016.013c.206.17.418.347.632.514 1.209.938 2.155 1.304 3.376 1.304a7.774 7.774 0 0 0 .875-.051c.14 0 .27.09.321.225a.356.356 0 0 1-.114.414c-2.352 1.802-4.898 1.953-7.304 1.953-.344 0-.69-.003-1.023-.006l-.353-.003c-.493-.003-.974-.024-1.423-.25-.16.3-.329.603-.488.889-1.22 2.192-2.372 4.262-.89 6.361.846 1.199 2.487 1.5 3.935 1.765 1.055.194 2.09.433 3.004.644l.033.008c2.142.491 4.166.955 6.356.955.712 0 1.394-.048 2.083-.147.63-.09 1.263-.214 1.884-.366.3-.509.57-.96.825-1.38.876-1.441 1.766-2.821 3.03-3.863 1.114-.918 2.414-1.423 3.66-1.423.368 0 .728.045 1.069.134.271.073.658.208.89.55.385.577.15 1.351-.632 2.07-2.323 2.134-5.224 3.7-8.39 4.53A121.957 121.957 0 0 0 7.695 81.16a.35.35 0 0 1-.335.253Zm19.065-33.696c-1.081 0-2.222.45-3.213 1.266-1.178.97-2.032 2.295-2.874 3.682-.15.246-.3.493-.447.74 2.78-.838 5.337-2.28 7.396-4.173.295-.272.736-.818.52-1.141-.074-.112-.228-.195-.483-.261a3.512 3.512 0 0 0-.899-.113Zm-20.818-9.04c-.383.739-.899 1.472-1.534 2.178-.126.625-.365 1.285-.75 2.076.31.152.683.167 1.104.17l.35.005c.352.003.684.006 1.016.006 2.01 0 3.97-.087 5.86-1.135-1.519-.095-2.55-.746-3.436-1.435-.226-.175-.45-.362-.666-.542l-.01-.009c-.637-.528-1.239-1.027-1.934-1.314Zm-1.203-.249c-.243 0-.316.046-.338.074-.064.08-.015.316.021.489.045.216.072.431.083.64.288-.38.54-.769.75-1.158a3.067 3.067 0 0 0-.501-.045h-.015Z" fill="#bfb7a5" fill-rule="evenodd" data-name="Fill 51"/></g></g><path d="M63.28 147.28c-.75 0-1.51-.053-2.26-.158-.602-.087-1.116-.235-1.527-.441-.107.013-.215.02-.32.02-.188 0-.375-.022-.553-.066a.358.358 0 0 1-.174-.102c-.382-.416-.482-1.086-.27-1.792.021-.068.046-.14.076-.22.049-.293.166-.583.349-.862.043-.118.075-.224.1-.325.102-.423.08-.884.06-1.33l-.183-3.92c-.028-.602-.036-1.293.22-1.865a1.836 1.836 0 0 1-.037-.958c.12-.501.596-.93 1.13-1.02.066-.01.132-.016.196-.016a.94.94 0 0 1 .816.443.358.358 0 0 1-.107.49 2.906 2.906 0 0 1 1.543.693c.55.486.932 1.105 1.302 1.704.173.282.353.573.546.841l.041.056.04.055 3.818 1.314c1.093.377 1.65 1.008 1.528 1.73a.35.35 0 0 1-.356.296c-2.063-.068-4.086-1.09-5.41-2.733l-2.46-.846-.018-.007c-.598-.208-1.276-.443-1.819-.909a2.577 2.577 0 0 1-.26-.254 6.046 6.046 0 0 0-.01.954l.18 3.918v.028c.01.184.018.374.018.57a4.974 4.974 0 0 1 1.355-.207c.44 0 .847.076 1.211.227.926.381 1.536 1.19 2.126 1.97.596.79 1.16 1.537 1.989 1.777a.356.356 0 0 1-.035.692c-.936.168-1.893.253-2.845.253Zm-1.58-4.065c.146.315.21.678.18 1.021-.062.747-.473 1.45-1.128 1.93-.068.049-.136.094-.21.139.225.057.437.091.576.112a15.502 15.502 0 0 0 3.827.061c-.512-.404-.925-.95-1.324-1.478l-.007-.01c-.559-.738-1.086-1.435-1.832-1.743l-.04-.016-.042-.016Zm-1.134-.104a1 1 0 0 0-.422.12c-.36.166-.694.444-.918.76a9.85 9.85 0 0 1-.148.356l-.031.074c-.038.09-.077.183-.111.275-.02.149-.01.295.027.434.084.318.304.589.653.805.254-.065.505-.185.725-.347.49-.357.796-.872.842-1.412.026-.316-.076-.668-.255-.877a.478.478 0 0 0-.362-.188Zm4.792-3.479v.001a6.703 6.703 0 0 0 3.482 1.472c-.224-.33-.806-.55-.98-.609l-2.502-.864Zm-4.849-3.783c-.365 0-.668.122-.874.353l-.059.072c.104.198.255.388.427.535.449.385 1.039.587 1.61.783l1.554.537-.118-.194c-.36-.581-.7-1.13-1.17-1.547-.376-.332-.9-.539-1.37-.539Zm-.42-.913a.46.46 0 0 0-.083.008c-.229.037-.502.229-.564.486l-.003.014c.27-.18.603-.284.959-.3a.387.387 0 0 1-.086-.095c-.046-.075-.122-.113-.224-.113Z" fill="#bfb7a5" fill-rule="evenodd" data-name="Fill 54"/><g data-name="Group 58"><g data-name="Group 58" transform="translate(38 111)" clip-path="url(&quot;#e&quot;)"><path d="M36.581 50.37c3.694-.347 7.116-2.863 8.613-6.33.655-1.518.95-3.286.364-4.832-.586-1.544-2.242-2.724-3.821-2.348-.92.219-1.668.9-2.298 1.622a14.186 14.186 0 0 0-3.347 7.564c-.078.634-.096 1.331.266 1.853.472.676 1.45.802 2.212.509.761-.292 1.356-.904 1.924-1.497.912-.952 1.89-2.072 1.82-3.403-.11-2.076-2.534-3.045-3.782-4.686-1.345-1.77-1.235-4.254-.888-6.467.185-1.177.42-2.357.386-3.547-.036-1.299-.393-2.57-.9-3.761-1.94-4.54-6.144-7.911-10.848-9.098-1.52-.383-3.125-.553-4.645-.173-1.99.497-3.638 1.872-5.425 2.9a16.803 16.803 0 0 1-6.935 2.171c-1.316.112-2.671.06-3.914-.401C2.21 19.272.441 15.54.741 12.122c.301-3.419 2.3-6.475 4.759-8.813 2.294-2.183 5.18-3.917 8.312-4.041 4.131-.16 7.94 2.46 12.07 2.65 3.365.158 6.713-1.313 10.04-.773 2.612.424 4.942 2.096 6.497 4.282 1.556 2.186 2.385 4.848 2.696 7.534.49 4.225 2.848 10.36.255 13.69L36.58 50.37Z" fill="#fff" fill-rule="evenodd" data-name="Fill 56"/></g></g><g data-name="Group 61"><g data-name="Group 61" transform="translate(38 111)" clip-path="url(&quot;#f&quot;)"><path d="M36.58 50.726a.356.356 0 0 1-.268-.584.348.348 0 0 1 .237-.126c3.543-.333 6.888-2.793 8.325-6.12.717-1.66.844-3.279.357-4.56-.404-1.063-1.551-2.192-2.88-2.192-.18 0-.36.02-.534.062-.902.215-1.64.965-2.115 1.51-.153.177-.275.324-.384.462.332.333.71.652 1.042.932 1.093.923 2.224 1.877 2.304 3.378.077 1.459-.95 2.66-1.917 3.67l-.007.007c-.563.586-1.2 1.251-2.045 1.576-.29.11-.61.17-.93.17-.719 0-1.336-.295-1.694-.807-.437-.63-.411-1.415-.328-2.101a14.558 14.558 0 0 1 2.658-6.78 3.314 3.314 0 0 1-.147-.185c-1.48-1.948-1.288-4.625-.955-6.74l.088-.548c.158-.964.32-1.96.293-2.932-.032-1.127-.326-2.348-.873-3.63-1.834-4.297-5.899-7.705-10.609-8.893-1.008-.254-1.907-.377-2.746-.377-.61 0-1.192.068-1.731.203-1.368.342-2.557 1.109-3.816 1.92l-.09.059c-.466.299-.946.607-1.43.885a17.23 17.23 0 0 1-7.078 2.217 13.61 13.61 0 0 1-1.147.05c-1.11 0-2.065-.154-2.918-.472-3.099-1.153-5.183-4.89-4.85-8.69.35-3.979 2.84-7.112 4.869-9.04 1.902-1.81 4.927-3.997 8.538-4.137.122-.005.247-.007.37-.007 2.141 0 4.193.684 6.177 1.346 1.803.602 3.669 1.223 5.553 1.312.16.008.327.012.495.012 1.305 0 2.635-.227 3.921-.447l.022-.004C31.65.901 33.007.67 34.361.67c.575 0 1.103.04 1.617.124 2.57.418 5.02 2.03 6.725 4.425 1.46 2.05 2.413 4.713 2.76 7.702.124 1.066.373 2.281.614 3.456.754 3.692 1.608 7.877-.433 10.496a.344.344 0 0 1-.492.057.358.358 0 0 1-.058-.498c1.837-2.36 1.02-6.369.298-9.906l-.005-.024c-.255-1.246-.496-2.422-.62-3.498-.333-2.871-1.243-5.42-2.632-7.368-1.597-2.243-3.882-3.752-6.269-4.139a9.37 9.37 0 0 0-1.517-.117c-1.283 0-2.61.228-3.895.448l-.033.006c-1.31.223-2.667.454-4.024.454-.18 0-.358-.004-.53-.012-1.972-.092-3.877-.726-5.72-1.339l-.021-.007C18.108.255 16.202-.382 14.17-.382c-.115 0-.231.002-.345.006-3.392.132-6.27 2.218-8.086 3.945C3.8 5.412 1.42 8.398 1.09 12.153c-.306 3.492 1.583 6.914 4.394 7.96.776.288 1.655.429 2.685.429.34 0 .704-.016 1.08-.048a16.527 16.527 0 0 0 6.79-2.13c.49-.28.964-.584 1.489-.923 1.25-.806 2.544-1.64 4.025-2.01a7.83 7.83 0 0 1 1.9-.225c.897 0 1.85.13 2.914.398 4.916 1.24 9.164 4.803 11.084 9.3.582 1.367.895 2.677.93 3.894.03 1.033-.137 2.057-.298 3.046l-.004.023-.088.542c-.31 1.975-.498 4.465.818 6.196l.01.013c.007.01.015.02.023.028.12-.149.23-.28.334-.4.54-.62 1.386-1.473 2.48-1.734.215-.05.438-.077.664-.077 1.483 0 2.982 1.113 3.566 2.645.553 1.456.422 3.268-.37 5.101-1.561 3.613-5.055 6.181-8.902 6.544l-.033.001Zm2.31-10.977a13.874 13.874 0 0 0-2.452 6.34c-.065.553-.092 1.175.207 1.605.224.32.632.505 1.118.505.236 0 .472-.043.683-.124.701-.269 1.282-.875 1.795-1.41.906-.945 1.785-1.967 1.723-3.138-.064-1.19-1.03-2.006-2.052-2.87l-.017-.013c-.337-.286-.685-.582-1.005-.895Z" fill="#bfb7a5" fill-rule="evenodd" data-name="Fill 59"/></g></g></g><g data-name="Group 75"><path d="M41.963 312.296s-7.962 45.247 27.9 45.247c35.864 0 27.9-45.247 27.9-45.247h-55.8Z" fill="#d3e6f2" fill-rule="evenodd" data-name="Fill 63"/><path d="M41.963 312.296c0-1.809 12.492-3.275 27.9-3.275 15.41 0 27.9 1.466 27.9 3.275s-12.49 3.274-27.9 3.274c-15.408 0-27.9-1.465-27.9-3.274" fill="#7098b3" fill-rule="evenodd" data-name="Fill 65"/><path d="M69.864 315.571c-15.384 0-27.9-1.47-27.9-3.276 0-1.805 12.516-3.274 27.9-3.274 15.384 0 27.9 1.469 27.9 3.274 0 1.807-12.516 3.276-27.9 3.276Zm0-5.842c-16.146 0-25.71 1.531-27.089 2.566 1.377 1.036 10.937 2.57 27.089 2.57 16.149 0 25.71-1.533 27.088-2.57-1.378-1.034-10.94-2.566-27.088-2.566Z" fill="#fff" fill-rule="evenodd" data-name="Fill 67"/><path d="M46.38 316.56s5.202 1.82 10.876 1.968c0 .15-2.795 28.76 6.384 33.832-20.807 0-17.26-35.8-17.26-35.8" fill="#fff" fill-rule="evenodd" data-name="Fill 69"/><path d="M87.521 318.528s2.74-.183 4.137-.673c1.184 14.367-1.654 30.737-10.64 33.917 2.247-2.12 6.976-9.134 6.503-33.244" fill="#fff" fill-rule="evenodd" data-name="Fill 71"/><path d="M77.503 319.857s5.714-.335 7.111-.825c1.183 14.367-.715 31.449-10.095 33.709 2.246-2.121 3.457-8.774 2.984-32.884" fill="#d3e6f2" fill-rule="evenodd" data-name="Fill 73"/></g><g data-name="Group 91"><g data-name="Group 78"><g data-name="Group 78" transform="translate(33 271)" clip-path="url(&quot;#g&quot;)"><path d="M38.929 43C8.26 43-5.588 8.291 2.539 1.455 10.664-5.382 38.929 43 38.929 43" fill="#7098b3" fill-rule="evenodd" data-name="Fill 76"/></g></g><g data-name="Group 81"><g data-name="Group 81" transform="translate(33 271)" clip-path="url(&quot;#h&quot;)"><path d="M38.928 43.351a.353.353 0 0 1-.222-.078C25.92 33.019.222-2.367-.036-2.722a.353.353 0 0 1 .573-.41c.258.356 25.902 35.665 38.613 45.86a.348.348 0 0 1-.222.623" fill="#fff" fill-rule="evenodd" data-name="Fill 79"/></g></g><g data-name="Group 84"><g data-name="Group 84" transform="translate(33 271)" clip-path="url(&quot;#i&quot;)"><path d="M9.656 9.967a.329.329 0 0 1-.072-.007L-8.487 6.18a.35.35 0 1 1 .145-.686L9.422 9.21l3.152-9.28a.354.354 0 0 1 .448-.221.35.35 0 0 1 .222.444L9.99 9.73a.353.353 0 0 1-.335.238" fill="#fff" fill-rule="evenodd" data-name="Fill 82"/></g></g><g data-name="Group 87"><g data-name="Group 87" transform="translate(33 271)" clip-path="url(&quot;#j&quot;)"><path d="M19.59 22.528c-.012 0-.023 0-.034-.002l-23.233-2.14a.35.35 0 1 1 .066-.698l22.847 2.105V9.349c0-.194.158-.35.353-.35.196 0 .354.156.354.35v12.829a.352.352 0 0 1-.354.35" fill="#fff" fill-rule="evenodd" data-name="Fill 85"/></g></g><g data-name="Group 90"><g data-name="Group 90" transform="translate(33 271)" clip-path="url(&quot;#k&quot;)"><path d="M1.301 33.709a.35.35 0 0 1-.018-.7l26.34-1.283V20.037a.353.353 0 0 1 .706 0V32.06c0 .186-.148.34-.336.35L1.32 33.708H1.3Z" fill="#fff" fill-rule="evenodd" data-name="Fill 88"/></g></g></g><g data-name="Group 110"><g data-name="Group 94"><g data-name="Group 94" transform="translate(49 227)" clip-path="url(&quot;#l&quot;)"><path d="M14.519.027c-31.577 12.407-2.95 70.61 14.661 85.967.384 0-14.661-85.967-14.661-85.967" fill="#7eacc9" fill-rule="evenodd" data-name="Fill 92"/></g></g><g data-name="Group 97"><g data-name="Group 97" transform="translate(49 227)" clip-path="url(&quot;#m&quot;)"><path d="M21.433 21.034a.351.351 0 0 1-.252-.106l-22.36-22.77a.353.353 0 0 1 .502-.497l22.363 22.77a.356.356 0 0 1-.253.603" fill="#fff" fill-rule="evenodd" data-name="Fill 95"/></g></g><g data-name="Group 100"><g data-name="Group 100" transform="translate(49 227)" clip-path="url(&quot;#n&quot;)"><path d="M29.76 48.13a.356.356 0 0 1-.207-.068L-3.527 24a.353.353 0 0 1-.08-.493.352.352 0 0 1 .494-.08L29.968 47.49a.355.355 0 0 1-.208.64" fill="#fff" fill-rule="evenodd" data-name="Fill 98"/></g></g><g data-name="Group 103"><g data-name="Group 103" transform="translate(49 227)" clip-path="url(&quot;#o&quot;)"><path d="M34.672 69.616a.346.346 0 0 1-.18-.052L-1.239 48.1a.355.355 0 0 1-.123-.486.352.352 0 0 1 .485-.121l35.73 21.465a.355.355 0 0 1-.182.659" fill="#fff" fill-rule="evenodd" data-name="Fill 101"/></g></g><g data-name="Group 106"><g data-name="Group 106" transform="translate(49 227)" clip-path="url(&quot;#p&quot;)"><path d="M-4.88 36.853a.354.354 0 0 1-.012-.708l17.655-.634L-3.05 7.333a.353.353 0 1 1 .617-.348L13.663 35.67a.352.352 0 0 1 0 .347.35.35 0 0 1-.294.18l-18.236.656h-.013Z" fill="#fff" fill-rule="evenodd" data-name="Fill 104"/></g></g><g data-name="Group 109"><g data-name="Group 109" transform="translate(49 227)" clip-path="url(&quot;#q&quot;)"><path d="M18.361 59.815a.35.35 0 0 1-.254-.108L.516 41.42a.354.354 0 0 1 .508-.491l17.592 18.287a.356.356 0 0 1-.255.6" fill="#fff" fill-rule="evenodd" data-name="Fill 107"/></g></g></g><g data-name="Group 126"><g data-name="Group 113"><g data-name="Group 113" transform="translate(76 246)" clip-path="url(&quot;#r&quot;)"><path d="M19.634 1.347C-2.412-6.682.974 67.942.974 67.942S40.167 8.824 19.634 1.347" fill="#7098b3" fill-rule="evenodd" data-name="Fill 111"/></g></g><g data-name="Group 116"><g data-name="Group 116" transform="translate(76 246)" clip-path="url(&quot;#s&quot;)"><path d="M.975 68.296a.354.354 0 0 1-.336-.482c3.287-8.331 18.762-74.601 18.917-75.27.045-.19.24-.309.432-.265a.354.354 0 0 1 .27.424C20.1-6.627 4.616 59.692 1.309 68.07a.36.36 0 0 1-.334.225" fill="#fff" fill-rule="evenodd" data-name="Fill 114"/></g></g><g data-name="Group 119"><g data-name="Group 119" transform="translate(76 246)" clip-path="url(&quot;#t&quot;)"><path d="M13.543 19.806a.356.356 0 0 1-.344-.25L5.9-3.728a.352.352 0 0 1 .237-.442.36.36 0 0 1 .449.232l7.139 22.77L36.15-.179a.364.364 0 0 1 .508.036.351.351 0 0 1-.037.5L13.777 19.721a.357.357 0 0 1-.234.085" fill="#fff" fill-rule="evenodd" data-name="Fill 117"/></g></g><g data-name="Group 122"><g data-name="Group 122" transform="translate(76 246)" clip-path="url(&quot;#u&quot;)"><path d="M9.922 34.71a.356.356 0 0 1-.33-.214L.994 14.825a.352.352 0 0 1 .189-.465.364.364 0 0 1 .472.185l8.43 19.29L34.51 18.362a.364.364 0 0 1 .497.106.35.35 0 0 1-.108.49L10.117 34.654a.36.36 0 0 1-.195.057" fill="#fff" fill-rule="evenodd" data-name="Fill 120"/></g></g><g data-name="Group 125"><g data-name="Group 125" transform="translate(76 246)" clip-path="url(&quot;#v&quot;)"><path d="M5.51 52.303a.359.359 0 0 1-.343-.245L-1.08 33.172a.354.354 0 0 1 .232-.446.36.36 0 0 1 .452.227L5.728 51.47l20.788-8.977a.361.361 0 0 1 .472.181.351.351 0 0 1-.184.467l-21.15 9.134a.376.376 0 0 1-.144.03" fill="#fff" fill-rule="evenodd" data-name="Fill 123"/></g></g></g><g data-name="Group 131"><path d="M276.066 64.266v140.54l1.972-138.44 59.883-5.507-61.855 3.407Z" fill="#7eacc9" fill-rule="evenodd" data-name="Fill 127"/><path d="m337.921 223.979-61.855-7.394v109.502l1.972-106.903 59.883 4.795Z" fill="#7eacc9" fill-rule="evenodd" data-name="Fill 129"/></g><g data-name="Group 144"><g data-name="Group 134"><g data-name="Group 134" transform="translate(132 54)" clip-path="url(&quot;#w&quot;)"><path d="m-33.676-22.156 3.393 59.648s62.241 0 108.075 24.646c31.187 16.769 88.743 76.442 88.743 76.442l6.823-179.923-207.034 19.187Z" fill="#7eacc9" fill-rule="evenodd" data-name="Fill 132"/></g></g><g data-name="Group 137"><g data-name="Group 137" transform="translate(228.27 68.344)" clip-path="url(&quot;#x&quot;)"><path d="m.899 8.11 48.537 3.632S33.714 4.28 30.505 4.28c-5.254 0-8.445 2.928-8.445 2.928S21.714.027 12.74.027.899 8.11.899 8.11" fill="#fff" fill-rule="evenodd" data-name="Fill 135"/></g></g><g data-name="Group 140"><g data-name="Group 140" transform="translate(132 100.704)" clip-path="url(&quot;#y&quot;)"><path d="M-8.565 15.553 31.959 5.65S30.796-.617 24.92.61c-5.878 1.228-4.964 5.42-4.964 5.42s-3.195-3.128-7.492-1.333C8.565 6.328-8.565 15.553-8.565 15.553" fill="#fff" fill-rule="evenodd" data-name="Fill 138"/></g></g><g data-name="Group 143"><g data-name="Group 143" transform="translate(132 112.936)" clip-path="url(&quot;#z&quot;)"><path d="M14.666.514c-2.976 1.078-5.99 2.02-9.014 2.914-3.02.904-6.064 1.728-9.11 2.535-3.054.782-6.112 1.547-9.19 2.232-3.076.694-6.165 1.34-9.288 1.85 2.976-1.079 5.988-2.023 9.013-2.917 3.022-.903 6.065-1.726 9.112-2.533 3.054-.78 6.112-1.546 9.189-2.23 3.077-.694 6.166-1.34 9.288-1.851" fill="#fff" fill-rule="evenodd" data-name="Fill 141"/></g></g></g><g data-name="Group 187"><g data-name="Group 147"><g data-name="Group 147" transform="translate(132 223)" clip-path="url(&quot;#A&quot;)"><path d="M2.938 46.647c9.874 3.585 34.455 4.417 42.014 1.767 7.561-2.65 14.754-24.952 9.068-32.019-5.686-7.066-15.957 1.737-15.957 1.737S34.39-4.126 17.331 1.476C.272 7.077 2.938 31.291 2.938 31.291s-4.61-7.792-8.8-1.646 4.724 15.522 8.8 17.002" fill="#d3e6f2" fill-rule="evenodd" data-name="Fill 145"/></g></g><g data-name="Group 150"><g data-name="Group 150" transform="translate(132 223)" clip-path="url(&quot;#B&quot;)"><path d="M2.938 46.647c9.874 3.585 34.455 4.417 42.014 1.767 7.561-2.65 14.754-24.952 9.068-32.019-5.686-7.066-15.957 1.737-15.957 1.737S34.39-4.126 17.331 1.476C.272 7.077 2.938 31.291 2.938 31.291s-4.61-7.792-8.8-1.646 4.724 15.522 8.8 17.002" fill="#d3e6f2" fill-rule="evenodd" data-name="Fill 148"/></g></g><g data-name="Group 153"><g data-name="Group 153" transform="translate(132 223)" clip-path="url(&quot;#C&quot;)"><path d="M2.938 46.647c9.874 3.585 35.997 5.165 42.175.087 4.263-3.502 7.122-10.033 1.436-17.1-5.686-7.066-13.391 2.642-13.391 2.642S30.553 12.073 19.96 15.684C2.966 21.476 10.414 37.51 10.414 37.51S1.21 34.343-.63 36.409c-2.235 2.512-.508 8.758 3.568 10.238" fill="#d3e6f2" fill-rule="evenodd" data-name="Fill 151"/></g></g><g data-name="Group 156"><g data-name="Group 156" transform="translate(132 223)" clip-path="url(&quot;#D&quot;)"><path d="M24.2 63.562a.354.354 0 0 1-.352-.322L17.525-7.598a.355.355 0 0 1 .322-.383.352.352 0 0 1 .387.32l6.321 70.838a.352.352 0 0 1-.354.385" fill="#fff" fill-rule="evenodd" data-name="Fill 154"/></g></g><g data-name="Group 159"><g data-name="Group 159" transform="translate(132 223)" clip-path="url(&quot;#E&quot;)"><path d="M28.807 59.852a.353.353 0 0 1-.312-.523L55.84 9.514a.358.358 0 0 1 .483-.142.353.353 0 0 1 .142.48L29.12 59.668a.359.359 0 0 1-.313.184" fill="#fff" fill-rule="evenodd" data-name="Fill 157"/></g></g><g data-name="Group 162"><g data-name="Group 162" transform="translate(132 223)" clip-path="url(&quot;#F&quot;)"><path d="M15.526 52.61a.362.362 0 0 1-.035-.003c-7.31-.715-23.773-26.618-24.47-27.72a.352.352 0 0 1 .111-.488.358.358 0 0 1 .49.112c.17.266 16.972 26.712 23.939 27.393a.354.354 0 0 1-.035.706" fill="#fff" fill-rule="evenodd" data-name="Fill 160"/></g></g><g data-name="Group 165"><g data-name="Group 165" transform="translate(132 223)" clip-path="url(&quot;#G&quot;)"><path d="M20.712 26.111a.352.352 0 0 1-.286-.143C19.796 25.12 4.978 5.122 4.799-2.498a.354.354 0 0 1 .348-.36c.162.002.358.15.363.344.173 7.398 15.334 27.857 15.487 28.062a.35.35 0 0 1-.075.494.352.352 0 0 1-.21.07" fill="#fff" fill-rule="evenodd" data-name="Fill 163"/></g></g><g data-name="Group 168"><g data-name="Group 168" transform="translate(132 223)" clip-path="url(&quot;#H&quot;)"><path d="M19.972 13.04a.353.353 0 0 1-.31-.526L31.676-8.862a.356.356 0 0 1 .62.346L20.283 12.858a.358.358 0 0 1-.311.181" fill="#fff" fill-rule="evenodd" data-name="Fill 166"/></g></g><g data-name="Group 171"><g data-name="Group 171" transform="translate(132 223)" clip-path="url(&quot;#I&quot;)"><path d="M22.152 40.458a.352.352 0 0 1-.304-.534C28.435 29.001 35.663.981 35.734.7a.355.355 0 0 1 .433-.255c.19.047.305.24.257.43-.073.283-7.327 28.403-13.968 39.412a.354.354 0 0 1-.304.17" fill="#fff" fill-rule="evenodd" data-name="Fill 169"/></g></g><g data-name="Group 174"><g data-name="Group 174" transform="translate(132 223)" clip-path="url(&quot;#J&quot;)"><path d="M22.54 47.31a.369.369 0 0 1-.155-.035C15.398 43.905.78 15.128.16 13.905a.352.352 0 0 1 .158-.475.357.357 0 0 1 .477.157c.151.298 15.13 29.785 21.9 33.052a.35.35 0 0 1 .165.471.355.355 0 0 1-.32.2" fill="#fff" fill-rule="evenodd" data-name="Fill 172"/></g></g><g data-name="Group 177"><g data-name="Group 177" transform="translate(132 223)" clip-path="url(&quot;#K&quot;)"><path d="M1.47 39.25h-.003a.355.355 0 0 1-.353-.356C1.16 32.888-.85 24.299-.87 24.214a.353.353 0 0 1 .265-.425.357.357 0 0 1 .427.262c.02.088 2.048 8.758 2.003 14.848a.354.354 0 0 1-.356.35" fill="#fff" fill-rule="evenodd" data-name="Fill 175"/></g></g><g data-name="Group 180"><g data-name="Group 180" transform="translate(132 223)" clip-path="url(&quot;#L&quot;)"><path d="M40.323 38.652a.356.356 0 0 1-.355-.344c-.351-13.92.363-28.497.37-28.643a.344.344 0 0 1 .373-.336c.196.01.347.177.336.371-.006.146-.72 14.698-.368 28.59a.355.355 0 0 1-.347.362h-.009Z" fill="#fff" fill-rule="evenodd" data-name="Fill 178"/></g></g><g data-name="Group 183"><g data-name="Group 183" transform="translate(132 223)" clip-path="url(&quot;#M&quot;)"><path d="M45.482 30.11a.353.353 0 0 1-.013-.706c4.471-.17 13.601-5.831 13.693-5.889a.358.358 0 0 1 .49.112.353.353 0 0 1-.112.488c-.381.237-9.383 5.818-14.045 5.996h-.013Z" fill="#fff" fill-rule="evenodd" data-name="Fill 181"/></g></g><g data-name="Group 186"><g data-name="Group 186" transform="translate(132 223)" clip-path="url(&quot;#N&quot;)"><path d="M26.247 31.92a.352.352 0 0 1-.2-.646c8.67-5.86 11.96-17.678 11.993-17.798.05-.188.245-.3.436-.248.189.052.3.245.25.433-.033.122-3.388 12.187-12.28 18.197a.358.358 0 0 1-.2.062" fill="#fff" fill-rule="evenodd" data-name="Fill 184"/></g></g></g><g data-name="Group 194"><path d="M159.392 357.574H126.79a.353.353 0 0 1 0-.706h32.6a.353.353 0 0 1 0 .706" fill="#fff" fill-rule="evenodd" data-name="Fill 188"/><path d="M298.444 370.98h-65.547a.353.353 0 0 1 0-.707h65.547a.353.353 0 0 1 0 .707" fill="#fff" fill-rule="evenodd" data-name="Fill 190"/><path d="M3.509 133.777A203.22 203.22 0 0 1 18.76 99.48c6.215-10.94 13.712-21.198 22.252-30.535 8.508-9.37 18.178-17.72 28.658-24.877 2.638-1.762 5.24-3.59 8.012-5.138 2.744-1.593 5.432-3.292 8.281-4.69 2.825-1.44 5.608-2.975 8.526-4.22 2.897-1.283 5.75-2.679 8.723-3.777 2.957-1.136 5.882-2.363 8.902-3.314 3.004-.999 5.981-2.078 9.038-2.895 3.043-.86 6.073-1.77 9.157-2.456l4.607-1.104c1.531-.391 3.092-.636 4.637-.953a244.234 244.234 0 0 1 37.477-4.449c3.136-.184 6.276-.21 9.413-.268 3.136-.094 6.272-.01 9.407.039 1.567.01 3.132.084 4.697.154l4.693.2c3.126.175 6.25.39 9.368.617 12.464 1.103 24.852 2.805 37.069 5.31-12.432-.948-24.838-1.72-37.235-1.846-3.099-.01-6.195-.051-9.29-.027l-4.64.087c-1.545.026-3.092.048-4.635.133-6.177.246-12.347.518-18.487 1.1-24.543 2.181-48.85 7.097-71.554 16.225-2.875 1.045-5.624 2.38-8.423 3.603-2.823 1.177-5.492 2.663-8.23 4.013-2.764 1.307-5.364 2.91-8.026 4.404-2.691 1.448-5.203 3.184-7.786 4.812l-1.93 1.233-.963.62-.927.67-3.71 2.686-1.857 1.341c-.617.45-1.253.877-1.834 1.373l-3.563 2.882c-1.184.966-2.388 1.91-3.557 2.895l-3.395 3.085-3.416 3.071c-1.114 1.05-2.16 2.171-3.243 3.253-2.141 2.192-4.362 4.317-6.32 6.683l-3.03 3.47-1.525 1.728c-.504.581-.959 1.202-1.44 1.803-1.889 2.424-3.83 4.819-5.687 7.277l-5.287 7.6c-6.86 10.286-12.738 21.235-18.178 32.48" fill="#fff" fill-rule="evenodd" data-name="Fill 192"/></g><g data-name="Group 319"><path d="M199.671 321.346s-6.473 3.413-8.01 4.59c-1.537 1.176-12.532 3.178-14.659 0-.118-2.708-.312-4.856 1.538-5.915 1.85-1.06 3.781-3.767 9.797-1.885 6.014 1.885 11.334.708 11.334.708v2.502Z" fill="#633e2f" fill-rule="evenodd" data-name="Fill 195"/><path d="M196.707 321.665c-3.019 1.833-6.647 3.487-10.125 4.174-3.213.634-6.613.232-9.628-1.002.014.355.032.72.047 1.1 2.128 3.177 13.124 1.175 14.66 0 1.537-1.178 8.01-4.59 8.01-4.59v-1.96c-.928.843-1.904 1.634-2.964 2.278" fill="#452b21" fill-rule="evenodd" data-name="Fill 197"/><path d="M209.597 321.346s6.506 3.972 9.817 4.913c3.31.942 8.749 1.413 11.349-1.293.12 0 2.055-5.063-3.346-8.477-5.402-3.414-9.186-2.472-11.43-.824-2.248 1.648-6.622 1.823-6.622 1.823l.232 3.858Z" fill="#633e2f" fill-rule="evenodd" data-name="Fill 199"/><path d="M231.029 323.131c-3.973 1.872-8.121 2.245-12.385 1.035-3.136-.888-6.173-2.62-9.124-4.109l.078 1.29s6.506 3.971 9.816 4.912c3.31.943 8.748 1.414 11.35-1.294.045 0 .368-.775.423-1.921-.053.026-.104.062-.158.087" fill="#452b21" fill-rule="evenodd" data-name="Fill 201"/><path d="M177.525 181.242s-.79 30.241-1.498 34.245c-.71 4.003.236 18.128 0 21.66-.237 3.532-1.656 19.777-1.183 23.779.473 4.002 3.47 13.42 2.68 16.01-.788 2.59-2.565 13.655-1.322 16.716 1.243 3.06 2.584 13.42 1.323 16.01-1.262 2.59-3.566 6.592 1.015 10.359 3.87-2.826 8.363-1.884 10.727 0 2.365 1.883 8.908 1.648 10.483 0 1.576-1.648.552-4.708 0-6.592-.551-1.884.833-8.947-.806-14.597-1.638-5.651-2.346-9.418-.692-11.538 1.655-2.118 1.149-15.538.692-18.363-.456-2.825.175-15.026.806-17.637.63-2.61 0-21.916 0-21.916s4.413 20.482 4.177 24.014c-.237 3.532 1.182 18.836 2.6 21.661 1.42 2.824.474 10.123 0 13.42-.472 3.296 2.129 9.416 2.129 13.42 0 4.001-1.666 15.773 1.177 17.657 2.843 1.883 6.431-1.177 8.302-2.59 1.87-1.412 6.763-1.177 9.282-.471 1.81-2.355 2.991-6.357 1.574-10.124-1.42-3.766-1.255-13.655-1.574-20.247-.32-6.592-1.34-26.09-2.484-34.824-1.145-8.732-5.122-68.74-6.798-72.757-1.677-4.017-40.61 2.705-40.61 2.705" fill="#0e4161" fill-rule="evenodd" data-name="Fill 203"/><path d="m206.38 107.333-14.612-.265 6.74 15.316 7.872-15.05Z" fill="#c43c23" fill-rule="evenodd" data-name="Fill 205"/><path d="M188.778 95.757c-1.55.628-1.477-.562-1.963-2.359-.553-2.045-.903-5.066-.385-5.488.976-.795 1.947-.09 2.348 1.148.4 1.235 1.366 6.145 0 6.7" fill="#fe9d77" fill-rule="evenodd" data-name="Fill 207"/><path d="M207.668 95.757c1.549.628 1.476-.562 1.963-2.359.553-2.045.903-5.066.385-5.488-.976-.795-1.948-.09-2.348 1.148-.4 1.235-1.367 6.145 0 6.7" fill="#fe9d77" fill-rule="evenodd" data-name="Fill 209"/><path d="M191.928 98.416c1.241 2.472 1.596 11.3-2.838 19.07s26.57 9.039 20.216 0c-5.675-8.07-4.965-18.187-4.965-18.187 1.241-7.417-12.413-.883-12.413-.883" fill="#fe9d77" fill-rule="evenodd" data-name="Fill 211"/><path d="M204.34 99.299c1.242-7.417-12.413-.883-12.413-.883.572 1.137.949 3.62.763 6.725-.127 2.128 3.77 4.064 5.437 4.137 3.378.147 5.502-1.239 6.504-4.384-.449-3.288-.29-5.595-.29-5.595" fill="#e8825a" fill-rule="evenodd" data-name="Fill 213"/><path d="M198.489 106.01c-5.854 0-9.207-5.652-9.835-11.126-.628-5.473-1.16-13.597 1.087-17.127 2.245-3.532 16.462-4.062 17.88 2.647 1.42 6.71.447 11.125-.05 14.67-.807 5.755-3.998 10.935-9.082 10.935" fill="#fe9d77" fill-rule="evenodd" data-name="Fill 215"/><path d="M197.945 95.277a.355.355 0 0 1-.338-.248.351.351 0 0 1 .23-.442l.979-.31c.398-.126.815-.295.89-.592.041-.165-.025-.376-.095-.602a12.077 12.077 0 0 1-.42-5.424c.094-.606.262-1.384.733-2.01a.356.356 0 0 1 .498-.07.353.353 0 0 1 .07.494c-.377.5-.519 1.167-.599 1.693a11.346 11.346 0 0 0 .385 5.077c.097.31.205.656.115 1.014-.16.634-.778.908-1.363 1.093l-.978.31a.328.328 0 0 1-.107.017" fill="#d17551" fill-rule="evenodd" data-name="Fill 217"/><path d="M196.123 94.343a.352.352 0 0 1-.333-.473l.409-1.127a.359.359 0 0 1 .455-.213.354.354 0 0 1 .213.452l-.41 1.128a.354.354 0 0 1-.334.233" fill="#d17551" fill-rule="evenodd" data-name="Fill 219"/><path d="M198.977 98.313a5.873 5.873 0 0 1-3.048-.882.352.352 0 0 1-.113-.487.355.355 0 0 1 .489-.113c.758.472 1.63.739 2.523.772.426.016 1.218-.029 1.655-.515a.358.358 0 0 1 .5-.028c.147.13.16.353.029.499-.55.61-1.379.754-2.035.754" fill="#d17551" fill-rule="evenodd" data-name="Fill 221"/><path d="M202.372 84.376c-.349-.043-.72-.06-1.034.097-.314.158-.536.547-.397.868.183.42.767.43 1.223.374l1.778-.221c.099-.012.2-.026.298-.001.326.076.552.456.855.575.06-1.05-1.892-1.587-2.723-1.692" fill="#543428" fill-rule="evenodd" data-name="Fill 223"/><path d="M194.858 83.916c.387-.028.797-.002 1.128.202.332.2.554.618.429.985-.169.489-.817.62-1.324.51-.505-.11-.982-.378-1.5-.384-.645-.006-1.245.64-1.824.481.125-1.256 2.062-1.72 3.09-1.794" fill="#543428" fill-rule="evenodd" data-name="Fill 225"/><path d="M193.76 88.872c.087.773-.285 1.45-.832 1.51-.547.063-1.06-.515-1.147-1.289-.088-.773.284-1.45.831-1.511.547-.061 1.06.516 1.148 1.29" fill="#543428" fill-rule="evenodd" data-name="Fill 227"/><path d="M202.803 88.872c-.088.773.285 1.45.831 1.51.547.063 1.06-.515 1.148-1.289.088-.773-.285-1.45-.831-1.511-.547-.061-1.06.516-1.148 1.29" fill="#543428" fill-rule="evenodd" data-name="Fill 229"/><path d="M186.71 85.95c.05.241.113.485.246.69.165.257.424.435.64.65.946.936.995 2.418.985 3.745.34.302.77-.277.835-.725.227-1.588-.28-3.538.069-5.103.774-3.47 4.354-5.724 7.836-6.508a12.297 12.297 0 0 1 4.346-.201c1.252.172 2.498 1.084 3.498 1.861 1.429 1.111 1.09 2.393 1.774 3.838.119.247.245.493.32.757.08.28.099.576.109.87.009.313-.3 4.902-.183 4.909.327.014.565-.326.61-.648.046-.322-.033-.65 0-.974.096-.94 1.043-1.52 1.585-2.294.92-1.313.614-3.09.272-4.654l-.837-3.817c-.263-1.2-.54-2.436-1.252-3.44-1.24-1.75-3.53-2.424-5.673-2.585-4.77-.36-9.735 1.384-12.962 4.902-2.043 2.227-2.842 5.786-2.218 8.727" fill="#633e2f" fill-rule="evenodd" data-name="Fill 231"/><path d="M186.176 83.318s-.91-7.063 1.933-10.506c2.843-3.444 9.202-4.591 10.323-4.768 1.12-.176 7.77.883 10.697 5.386 2.926 4.502.993 9.888.993 9.888s-1.027.27-1.969-.441c-.941-.713.205 2.429-2.235.84-1.22-.794-5.04-3.312-7.683-3.223-2.644.087-5.536 2.554-6.468 3.26-1.861 1.413-3.253-1.811-3.937-.947-.868 1.098-1.654.51-1.654.51" fill="#e04428" fill-rule="evenodd" data-name="Fill 233"/><path d="M200.209 120.487s-1.069-1.803-1.133-2.56c-.131-1.588-.44-4.123-.44-4.123l-6.869-6.736s-4.481 3.397-5.264 4.965c-1.846.686-11.6 2.275-14.614 5.806-3.015 3.531-9.398 12.101-12.058 20.706-2.66 8.607-3.37 10.725-2.306 10.901 1.064.177 17.379 7.947 19.507 7.77 2.127-.176-3.015 19.776-2.483 23.31.532 3.53 4.078 7.592 8.334 7.237 4.257-.352 8.552 2.297 15.626.883 7.072-1.411 24.806 1.59 24.629-6.356-.178-7.947-2.129-19.776-3.015-24.367-.886-4.592-.354-9.856-.354-9.856s2.07 6.618 2.6 7.148c.53.53 11.586-6.475 12.473-7.888.887-1.411 1.95-2.318 3.369-2.394 1.419-.078-4.078-7.847-4.965-12.26-.886-4.416-2.305-10.647-6.03-13.976-3.724-3.33-14.363-5.406-15.25-6.664-.887-1.257-5.586-4.7-5.586-4.7l-5.481 6.092s2.25 2.802 1.377 4.038c-.874 1.236-2.067 3.024-2.067 3.024" fill="#e04428" fill-rule="evenodd" data-name="Fill 235"/><path d="M161.84 146.15s-5.97 14.833-6.442 18.012c-.473 3.178 2.777 7.71 5.496 9.829 2.72 2.119 8.75 5.71 8.75 5.71s2.126 5.65 3.427 6.357c1.3.705 6.207 1.882 11.408-2.709 5.202-4.591-4.284.177-5.94-1.588-1.655-1.766-2.985-.06-2.749-2.885.237-2.825 1.917-9.379 1.064-9.299-.853.079-2.72-.119-3.429.706-.709.825-.663-3.65-2.755-5.533.156-2.59 3.82-5.532 3.465-10.242-.355-4.708-12.295-8.358-12.295-8.358" fill="#fe9d77" fill-rule="evenodd" data-name="Fill 237"/><path d="M181.037 182.089c-2.404 1.94-5.193 3.232-8.66 3.26.245.335.48.593.694.708 1.3.707 6.207 1.884 11.408-2.708 3.845-3.393-.331-1.675-3.442-1.26" fill="#e8825a" fill-rule="evenodd" data-name="Fill 239"/><path d="M169.406 164.515a.35.35 0 0 1-.251-.104c-2.375-2.376-7.92-2.957-10.788-1.129a.357.357 0 0 1-.49-.108.351.351 0 0 1 .107-.487c3.161-2.015 9.053-1.397 11.674 1.226a.352.352 0 0 1-.252.602" fill="#d17551" fill-rule="evenodd" data-name="Fill 241"/><path d="M170.233 179.582h-.011a.353.353 0 0 1-.344-.364c.016-.493.396-.935.884-1.027a.353.353 0 1 1 .131.694.399.399 0 0 0-.306.355.353.353 0 0 1-.354.342" fill="#d17551" fill-rule="evenodd" data-name="Fill 243"/><path d="M172.468 173.46h-.022a.354.354 0 0 1-.332-.375 6.172 6.172 0 0 1 .28-1.491.355.355 0 0 1 .677.213c-.138.429-.221.874-.25 1.323a.354.354 0 0 1-.353.33" fill="#d17551" fill-rule="evenodd" data-name="Fill 245"/><path d="M178.54 181.76c-1.655-1.766-2.986-.059-2.75-2.884.237-2.826 1.918-9.38 1.064-9.3-.853.08-2.719-.117-3.428.707-.337.392-.166-.419-.473-1.574-.201.047-.773.013-.953.129-.909.583-1.877 1.725-2.372 2.681-1.131 2.188-2.779 6.203-2.394 7.365 1.29.798 2.408.817 2.408.817s2.128 5.649 3.429 6.356c1.3.707 6.207 1.883 11.408-2.707 5.202-4.592-4.285.176-5.94-1.59" fill="#fff" fill-rule="evenodd" data-name="Fill 247"/><path d="M234.983 146.15s5.948 14.833 6.42 18.012c.473 3.178-2.341 6.826-5.06 8.945-2.719 2.12-9.162 6.594-9.162 6.594s-4.044 5.04-5.344 5.746c-1.3.707-6.366 1.274-11.568-3.316-5.2-4.592 5.68 1.925 7.335.16 1.655-1.766 3.665-.59 3.429-3.415-.237-2.825-1.918-9.379-1.063-9.299.853.079 3.544.117 4.254.94.71.826-.163-3.884 1.928-5.767-.154-2.59-3.783-9.754-3.427-14.462.354-4.71 12.258-4.138 12.258-4.138" fill="#fe9d77" fill-rule="evenodd" data-name="Fill 249"/><path d="M215.333 183.031a43.28 43.28 0 0 0-2.303.057 7.698 7.698 0 0 1-1.711-.101c4.818 3.653 9.305 3.12 10.518 2.46.568-.309 1.659-1.446 2.708-2.628-.164.024-.328.035-.492.055-2.87.857-5.819.763-8.72.157" fill="#e8825a" fill-rule="evenodd" data-name="Fill 251"/><path d="M161.059 152.95c.306.276.626.536.944.8-.062-.067.18.098.73.5 3.09 2.033 6.398 3.674 9.702 5.326.2.033.397.066.546.093.725-1.473 1.305-3.156 1.154-5.161-.355-4.708-12.295-8.358-12.295-8.358s-1.017 2.25-2.301 5.207c.393.379 1.354 1.44 1.52 1.593" fill="#e8825a" fill-rule="evenodd" data-name="Fill 253"/><path d="M224.717 159.327c1.34-.432 3.211-1.52 4.608-2.536 2.686-1.956 5.042-4.543 7.018-7.19-.794-2.04-1.36-3.45-1.36-3.45s-11.904-.573-12.26 4.136c-.2 2.667.874 6.11 1.873 9.074.04-.013.081-.02.121-.034" fill="#e8825a" fill-rule="evenodd" data-name="Fill 255"/><path d="M227.417 164.515a.352.352 0 0 1-.252-.602c2.622-2.622 8.512-3.24 11.674-1.226a.352.352 0 0 1 .108.487.357.357 0 0 1-.49.108c-2.868-1.83-8.415-1.247-10.79 1.129a.35.35 0 0 1-.25.104" fill="#d17551" fill-rule="evenodd" data-name="Fill 257"/><path d="M226.59 179.582a.353.353 0 0 1-.354-.342.399.399 0 0 0-.306-.355.353.353 0 1 1 .131-.694c.488.092.868.534.884 1.027a.354.354 0 0 1-.344.364h-.01Z" fill="#d17551" fill-rule="evenodd" data-name="Fill 259"/><path d="M225.197 173.46a.354.354 0 0 1-.354-.33 5.564 5.564 0 0 0-.248-1.323.354.354 0 0 1 .675-.213c.154.483.25.985.282 1.49a.355.355 0 0 1-.332.376h-.023" fill="#d17551" fill-rule="evenodd" data-name="Fill 261"/><path d="M228.1 171.786c-.488-.928-1.197-1.716-2.29-2.24-.103-.05-1.522-.636-1.52-.657-.105 1.183.265 2.015-.067 1.629-.709-.824-3.4-.862-4.254-.94-.854-.082.827 6.473 1.064 9.298.236 2.826-1.774 1.649-3.429 3.415-1.655 1.765-12.536-4.752-7.335-.161 5.202 4.59 10.267 4.024 11.568 3.317 1.3-.706 5.344-5.746 5.344-5.746s1.184-.281 2.437-1.163c.282-.204-.354-2.543-.415-2.895-.234-1.351-.501-2.712-1.102-3.857" fill="#fff" fill-rule="evenodd" data-name="Fill 263"/><path d="M185.648 181.295c-.235.2-.476.393-.726.575-3.679 2.67-9.291 2.791-13.52 1.606-.045-.013-.091-.03-.138-.043.606 1.217 1.276 2.334 1.807 2.624 1.3.707 6.207 1.883 11.408-2.707 1.706-1.505 1.827-2.002 1.17-2.055" fill="#d3e6f2" fill-rule="evenodd" data-name="Fill 265"/><path d="M216.045 183.088c-2.41.322-4.536-.759-6.116-2.44-1.286-.402-1.64-.267.34 1.482 5.202 4.59 10.267 4.024 11.568 3.317.75-.407 2.41-2.254 3.683-3.746-3.082.79-6.352.97-9.475 1.387" fill="#d3e6f2" fill-rule="evenodd" data-name="Fill 267"/><path d="M199.754 227.37a.354.354 0 0 1-.353-.327 351.26 351.26 0 0 1-.972-20.733.354.354 0 0 1 .35-.358c.171 0 .356.152.36.346.118 6.877.444 13.837.969 20.69a.353.353 0 0 1-.327.38l-.027.001" fill="#072130" fill-rule="evenodd" data-name="Fill 269"/><path d="M199.493 205.752c-1.431 0-2.859-.27-4.196-.802a.353.353 0 1 1 .264-.655c2.177.868 4.618.987 6.871.336a.353.353 0 1 1 .198.679 11.31 11.31 0 0 1-3.137.442" fill="#072130" fill-rule="evenodd" data-name="Fill 271"/><path d="M216.922 195.371a.36.36 0 0 1-.19-.056 11.396 11.396 0 0 1-4.72-6.058.352.352 0 0 1 .226-.445.356.356 0 0 1 .448.225 10.84 10.84 0 0 0 4.427 5.682.354.354 0 0 1-.191.652" fill="#072130" fill-rule="evenodd" data-name="Fill 273"/><path d="M179.607 197.732a.353.353 0 0 1-.302-.538 14.436 14.436 0 0 0 2.107-8.055.353.353 0 0 1 .34-.366c.201-.017.362.143.369.337a15.136 15.136 0 0 1-2.212 8.453.354.354 0 0 1-.302.17" fill="#072130" fill-rule="evenodd" data-name="Fill 275"/><path d="M181.642 259.237a.35.35 0 0 1-.215-.073 17.503 17.503 0 0 1-3.962-4.216.353.353 0 0 1 .1-.49.356.356 0 0 1 .491.099 16.818 16.818 0 0 0 3.802 4.046c.156.119.185.34.065.495a.351.351 0 0 1-.28.139" fill="#072130" fill-rule="evenodd" data-name="Fill 277"/><path d="M220.566 259.104a.355.355 0 0 1-.331-.482 54.614 54.614 0 0 1 2.558-5.614.355.355 0 0 1 .628.328 53.83 53.83 0 0 0-2.525 5.542.355.355 0 0 1-.33.226" fill="#072130" fill-rule="evenodd" data-name="Fill 279"/><path d="M213.536 311.748a.352.352 0 0 1-.25-.102 13.612 13.612 0 0 1-4.043-9.757.354.354 0 0 1 .355-.35h.003a.354.354 0 0 1 .351.357c-.029 3.398 1.404 6.857 3.834 9.248.138.138.14.361.002.499a.35.35 0 0 1-.252.105" fill="#072130" fill-rule="evenodd" data-name="Fill 281"/><path d="M193.777 316.91a.355.355 0 0 1-.344-.268.351.351 0 0 1 .258-.427 6.801 6.801 0 0 0 3.889-2.688.355.355 0 0 1 .493-.09.35.35 0 0 1 .09.49 7.502 7.502 0 0 1-4.3 2.972.334.334 0 0 1-.086.01" fill="#072130" fill-rule="evenodd" data-name="Fill 283"/><path d="M157.525 149.446c1.064.177 17.379 7.946 19.507 7.77 1.012-.084.378 4.39-.508 9.485.356.14.712.3 1.072.493.702.033 1.405.052 2.108.055 5.553.024 11.105.005 16.656 0 8.43-.009 16.857-.213 25.284-.19-.553-3.8-1.137-7.148-1.52-9.136-.887-4.592-.355-9.856-.355-9.856s2.07 6.618 2.6 7.147c.53.53 11.585-6.474 12.473-7.887.887-1.412 1.95-2.318 3.369-2.394 1.418-.078-4.078-7.847-4.965-12.262-.887-4.413-2.305-10.645-6.03-13.975-3.723-3.33-14.364-5.407-15.25-6.664-.887-1.256-5.586-4.699-5.586-4.699l-5.481 6.091s2.25 2.803 1.377 4.04c-.874 1.234-2.068 3.024-2.068 3.024s-1.068-1.804-1.132-2.56c-.131-1.59-.44-4.124-.44-4.124l-6.869-6.736s-4.481 3.396-5.264 4.964c-1.846.687-11.6 2.275-14.614 5.807-3.015 3.532-9.398 12.101-12.059 20.707-2.66 8.606-3.37 10.724-2.305 10.9" fill="#e04428" fill-rule="evenodd" data-name="Fill 285"/><path d="M177.525 155.627a.353.353 0 0 1-.344-.44c.81-3.099 1.13-14.542.96-17.728a.354.354 0 0 1 .337-.371.35.35 0 0 1 .372.333c.17 3.216-.158 14.792-.982 17.942a.354.354 0 0 1-.343.264" fill="#633e2f" fill-rule="evenodd" data-name="Fill 287"/><path d="M219.239 147.647a.353.353 0 0 1-.317-.194c-1.25-2.47-2.118-7.055-1.856-9.81a.35.35 0 0 1 .387-.318c.195.019.338.19.319.385-.252 2.647.582 7.05 1.783 9.425a.352.352 0 0 1-.316.512" fill="#633e2f" fill-rule="evenodd" data-name="Fill 289"/><path d="M195.707 119.05c-.013 0-.026 0-.04-.002-.203-.014-.338-.139-.41-.206l-6.273-5.813a.35.35 0 0 1-.018-.5.356.356 0 0 1 .5-.018l6.231 5.775c.265-.337.607-1.018.938-1.675.37-.735.719-1.429 1.033-1.819a.357.357 0 0 1 .499-.053.352.352 0 0 1 .053.496c-.265.33-.614 1.023-.952 1.693-.37.735-.719 1.43-1.033 1.82-.068.084-.246.301-.528.301" fill="#633e2f" fill-rule="evenodd" data-name="Fill 291"/><path d="M204.969 117.45a.358.358 0 0 1-.241-.093 18.232 18.232 0 0 1-3.319-4.09.352.352 0 0 1 .124-.483c.17-.1.387-.045.486.123a17.566 17.566 0 0 0 2.928 3.686 56.031 56.031 0 0 1 4.943-4.827.355.355 0 0 1 .5.036c.129.148.112.37-.035.497a55.618 55.618 0 0 0-5.121 5.034.359.359 0 0 1-.248.118h-.017Z" fill="#633e2f" fill-rule="evenodd" data-name="Fill 293"/><path d="M199.621 145.285h-.026a.354.354 0 0 1-.327-.38c.095-1.252.264-2.53.43-3.766.453-3.392.922-6.897-.17-10.102-.083-.248-.177-.496-.27-.747-.453-1.214-.923-2.47-.511-3.735.164-.505.452-.936.73-1.353.173-.26.338-.51.473-.772.305-.596.38-1.399-.065-1.779a.351.351 0 0 1-.04-.497.356.356 0 0 1 .5-.04c.76.646.655 1.819.238 2.637-.153.298-.338.575-.517.843-.262.394-.51.766-.644 1.178-.336 1.034.09 2.171.5 3.272.096.257.192.512.278.766 1.145 3.36.665 6.95.201 10.422-.164 1.226-.333 2.496-.426 3.726a.354.354 0 0 1-.354.327" fill="#633e2f" fill-rule="evenodd" data-name="Fill 295"/><path d="M175.554 152.507h45.87l.946 30.725-46.816 1.06v-31.785Z" fill="#e8bd61" fill-rule="evenodd" data-name="Fill 297"/><path d="M208.827 168.042c-6.338 4.705-13.092 9.338-19.97 13.227-1.767 1-3.57 1.94-5.396 2.844l38.909-.88-.817-26.53c-3.68 4.323-8.215 7.99-12.726 11.34" fill="#e8bd61" fill-rule="evenodd" data-name="Fill 299"/><path d="m175.554 152.507 3.187-4.44h40.103l2.58 4.44h-45.87Z" fill="#e8bd61" fill-rule="evenodd" data-name="Fill 301"/><path d="m175.554 152.507 3.187-4.44h40.103l2.58 4.44h-45.87Z" fill="#e8bd61" fill-rule="evenodd" data-name="Fill 303"/><path d="M181.465 139.798v1.902c0 .467.394.839.862.812l7.943-.439a.815.815 0 0 0 .77-.813v-1.902a.816.816 0 0 0-.862-.812l-7.941.44a.814.814 0 0 0-.772.812" fill="#0e4161" fill-rule="evenodd" data-name="Fill 305"/><path d="M221.232 152.86h-45.486a.353.353 0 1 1 0-.706h45.486a.353.353 0 1 1 0 .707" fill="#f5d798" fill-rule="evenodd" data-name="Fill 307"/><path d="M189.225 82.049a.352.352 0 0 1-.262-.59c1.689-1.85 4.618-4.057 8.981-4.057 3.998 0 7.47 1.337 9.292 3.575.124.152.1.374-.05.497a.358.358 0 0 1-.5-.051c-1.664-2.044-5.013-3.314-8.742-3.314-4.105 0-6.864 2.08-8.457 3.824a.349.349 0 0 1-.262.116" fill="#633e2f" fill-rule="evenodd" data-name="Fill 309"/><path d="M198.489 106.01c-5.854 0-9.237-5.649-9.835-11.126-.22-2.022-.523-6.837-.523-6.837s.269.294.523 1.12c.37 1.2.812 3.062 1.222 2.964 2.382-.577 7.388-1.76 8.358-1.76.943 0 5.932 1.214 8.146 1.763.315.078.866-1.71 1.286-2.878.316-.876.562-1.21.562-1.21s-.505 5.945-.657 7.028c-.807 5.755-3.998 10.935-9.082 10.935" fill="#fff" fill-rule="evenodd" data-name="Fill 311"/><path d="M202.605 94.006a.348.348 0 0 1-.088-.011l-4.103-1.042-4.22 1.043a.357.357 0 0 1-.43-.258.355.355 0 0 1 .26-.429l4.306-1.064a.369.369 0 0 1 .174.001l4.188 1.064a.354.354 0 0 1-.087.696" fill="#d3e6f2" fill-rule="evenodd" data-name="Fill 313"/><path d="M198.432 99.357a.378.378 0 0 1-.135-.025l-7.368-3.018a.352.352 0 0 1-.193-.461.356.356 0 0 1 .463-.192l7.226 2.959 6.525-2.954a.353.353 0 1 1 .293.642l-6.664 3.018a.358.358 0 0 1-.147.031" fill="#d3e6f2" fill-rule="evenodd" data-name="Fill 315"/><path d="M198.545 104.141a.369.369 0 0 1-.145-.03l-4.903-2.178a.353.353 0 1 1 .289-.645l4.746 2.107 4.638-2.45a.355.355 0 1 1 .332.625l-4.79 2.53a.368.368 0 0 1-.167.041" fill="#d3e6f2" fill-rule="evenodd" data-name="Fill 317"/></g></g><defs><clipPath id="a"><path d="M0 0h404.636v377.367H0V0Z" data-name="Clip 2" transform="translate(0 .633)"/></clipPath><clipPath id="b"><path d="M0 0h317.366v42.933H0V0Z" data-name="Clip 5" transform="translate(.075 .426)"/></clipPath><clipPath id="c"><path d="M0 377.367h404.636V0H0v377.367Z" data-name="Clip 48" transform="translate(0 .633)"/></clipPath><clipPath id="d"><path d="M0 0h31.429v56.673H0V0Z" data-name="Clip 52" transform="translate(.212 .022)"/></clipPath><clipPath id="e"><path d="M0 0h42.096v50.124H0V0Z" data-name="Clip 57" transform="translate(.708 .246)"/></clipPath><clipPath id="f"><path d="M0 0h42.447v50.48H0V0Z" data-name="Clip 60" transform="translate(.357 .246)"/></clipPath><clipPath id="g"><path d="M2.287.662c-8.126 6.835 5.724 41.544 36.391 41.544C38.678 42.206 14.02 0 4.145 0c-.698 0-1.322.21-1.858.662" data-name="Clip 77" transform="translate(.25 .794)"/></clipPath><clipPath id="h"><path d="M2.287.662c-8.126 6.835 5.724 41.544 36.391 41.544C38.678 42.206 14.02 0 4.145 0c-.698 0-1.322.21-1.858.662" data-name="Clip 80" transform="translate(.25 .794)"/></clipPath><clipPath id="i"><path d="M2.287.662c-8.126 6.835 5.724 41.544 36.391 41.544C38.678 42.206 14.02 0 4.145 0c-.698 0-1.322.21-1.858.662" data-name="Clip 83" transform="translate(.25 .794)"/></clipPath><clipPath id="j"><path d="M2.287.662c-8.126 6.835 5.724 41.544 36.391 41.544C38.678 42.206 14.02 0 4.145 0c-.698 0-1.322.21-1.858.662" data-name="Clip 86" transform="translate(.25 .794)"/></clipPath><clipPath id="k"><path d="M2.287.662c-8.126 6.835 5.724 41.544 36.391 41.544C38.678 42.206 14.02 0 4.145 0c-.698 0-1.322.21-1.858.662Z" data-name="Clip 89" transform="translate(.25 .794)"/></clipPath><clipPath id="l"><path d="M28.816 85.967C29.201 85.967 14.156 0 14.156 0c-31.578 12.406-2.95 70.61 14.66 85.967" data-name="Clip 93" transform="translate(.364 .027)"/></clipPath><clipPath id="m"><path d="M28.816 85.967C29.201 85.967 14.156 0 14.156 0c-31.578 12.406-2.95 70.61 14.66 85.967" data-name="Clip 96" transform="translate(.364 .027)"/></clipPath><clipPath id="n"><path d="M28.816 85.967C29.201 85.967 14.156 0 14.156 0c-31.578 12.406-2.95 70.61 14.66 85.967" data-name="Clip 99" transform="translate(.364 .027)"/></clipPath><clipPath id="o"><path d="M28.816 85.967C29.201 85.967 14.156 0 14.156 0c-31.578 12.406-2.95 70.61 14.66 85.967" data-name="Clip 102" transform="translate(.364 .027)"/></clipPath><clipPath id="p"><path d="M28.816 85.967C29.201 85.967 14.156 0 14.156 0c-31.578 12.406-2.95 70.61 14.66 85.967Z" data-name="Clip 105" transform="translate(.364 .027)"/></clipPath><clipPath id="q"><path d="M28.816 85.967C29.201 85.967 14.156 0 14.156 0c-31.578 12.406-2.95 70.61 14.66 85.967" data-name="Clip 108" transform="translate(.364 .027)"/></clipPath><clipPath id="r"><path d="M.187 67.2S39.38 8.081 18.847.603C17.72.194 16.661 0 15.666 0-2.864-.002.186 67.2.186 67.2" data-name="Clip 112" transform="translate(.787 .742)"/></clipPath><clipPath id="s"><path d="M.187 67.2S39.38 8.081 18.847.603C17.72.194 16.661 0 15.666 0-2.864-.002.186 67.2.186 67.2" data-name="Clip 115" transform="translate(.787 .742)"/></clipPath><clipPath id="t"><path d="M.187 67.2S39.38 8.081 18.847.603C17.72.194 16.661 0 15.666 0-2.864-.002.186 67.2.186 67.2" data-name="Clip 118" transform="translate(.787 .742)"/></clipPath><clipPath id="u"><path d="M.187 67.2S39.38 8.081 18.847.603C17.72.194 16.661 0 15.666 0-2.864-.002.186 67.2.186 67.2" data-name="Clip 121" transform="translate(.787 .742)"/></clipPath><clipPath id="v"><path d="M.187 67.2S39.38 8.081 18.847.603C17.72.194 16.661 0 15.666 0-2.864-.002.186 67.2.186 67.2" data-name="Clip 124" transform="translate(.787 .742)"/></clipPath><clipPath id="w"><path d="M0 0h133.314v138.274H0V0Z" data-name="Clip 133" transform="translate(.675 .306)"/></clipPath><clipPath id="x"><path d="M0 0h36.82v11.715H0V0Z" data-name="Clip 136" transform="translate(.899 .027)"/></clipPath><clipPath id="y"><path d="M0 0h31.284v15.101H0V0Z" data-name="Clip 139" transform="translate(.675 .452)"/></clipPath><clipPath id="z"><path d="M0 0h13.991v9.531H0V0Z" data-name="Clip 142" transform="translate(.675 .514)"/></clipPath><clipPath id="A"><path d="M16.65.904C-.41 6.506 2.257 30.72 2.257 30.72S1.36 29.206 0 28.04v16.764c.827.596 1.604 1.036 2.257 1.273 9.874 3.583 34.453 4.415 42.014 1.765 7.561-2.65 14.753-24.952 9.066-32.018-5.684-7.065-15.955 1.736-15.955 1.736S34.482.002 21.882 0c-1.587 0-3.326.278-5.232.904" data-name="Clip 146" transform="translate(.682 .571)"/></clipPath><clipPath id="B"><path d="M16.65.904C-.41 6.506 2.257 30.72 2.257 30.72S1.36 29.206 0 28.04v16.764c.827.596 1.604 1.036 2.257 1.273 9.874 3.583 34.453 4.415 42.014 1.765 7.561-2.65 14.753-24.952 9.066-32.018-5.684-7.065-15.955 1.736-15.955 1.736S34.482.002 21.882 0c-1.587 0-3.326.278-5.232.904" data-name="Clip 149" transform="translate(.682 .571)"/></clipPath><clipPath id="C"><path d="M16.65.904C-.41 6.506 2.257 30.72 2.257 30.72S1.36 29.206 0 28.04v16.764c.827.596 1.604 1.036 2.257 1.273 9.874 3.583 34.453 4.415 42.014 1.765 7.561-2.65 14.753-24.952 9.066-32.018-5.684-7.065-15.955 1.736-15.955 1.736S34.482.002 21.882 0c-1.587 0-3.326.278-5.232.904" data-name="Clip 152" transform="translate(.682 .571)"/></clipPath><clipPath id="D"><path d="M16.65.904C-.41 6.506 2.257 30.72 2.257 30.72S1.36 29.206 0 28.04v16.764c.827.596 1.604 1.036 2.257 1.273 9.874 3.583 34.453 4.415 42.014 1.765 7.561-2.65 14.753-24.952 9.066-32.018-5.684-7.065-15.955 1.736-15.955 1.736S34.482.002 21.882 0c-1.587 0-3.326.278-5.232.904" data-name="Clip 155" transform="translate(.682 .571)"/></clipPath><clipPath id="E"><path d="M16.65.904C-.41 6.506 2.257 30.72 2.257 30.72S1.36 29.206 0 28.04v16.764c.827.596 1.604 1.036 2.257 1.273 9.874 3.583 34.453 4.415 42.014 1.765 7.561-2.65 14.753-24.952 9.066-32.018-5.684-7.065-15.955 1.736-15.955 1.736S34.482.002 21.882 0c-1.587 0-3.326.278-5.232.904" data-name="Clip 158" transform="translate(.682 .571)"/></clipPath><clipPath id="F"><path d="M16.65.904C-.41 6.506 2.257 30.72 2.257 30.72S1.36 29.206 0 28.04v16.764c.827.596 1.604 1.036 2.257 1.273 9.874 3.583 34.453 4.415 42.014 1.765 7.561-2.65 14.753-24.952 9.066-32.018-5.684-7.065-15.955 1.736-15.955 1.736S34.482.002 21.882 0c-1.587 0-3.326.278-5.232.904" data-name="Clip 161" transform="translate(.682 .571)"/></clipPath><clipPath id="G"><path d="M16.65.904C-.41 6.506 2.257 30.72 2.257 30.72S1.36 29.206 0 28.04v16.764c.827.596 1.604 1.036 2.257 1.273 9.874 3.583 34.453 4.415 42.014 1.765 7.561-2.65 14.753-24.952 9.066-32.018-5.684-7.065-15.955 1.736-15.955 1.736S34.482.002 21.882 0c-1.587 0-3.326.278-5.232.904" data-name="Clip 164" transform="translate(.682 .571)"/></clipPath><clipPath id="H"><path d="M16.65.904C-.41 6.506 2.257 30.72 2.257 30.72S1.36 29.206 0 28.04v16.764c.827.596 1.604 1.036 2.257 1.273 9.874 3.583 34.453 4.415 42.014 1.765 7.561-2.65 14.753-24.952 9.066-32.018-5.684-7.065-15.955 1.736-15.955 1.736S34.482.002 21.882 0c-1.587 0-3.326.278-5.232.904" data-name="Clip 167" transform="translate(.682 .571)"/></clipPath><clipPath id="I"><path d="M16.65.904C-.41 6.506 2.257 30.72 2.257 30.72S1.36 29.206 0 28.04v16.764c.827.596 1.604 1.036 2.257 1.273 9.874 3.583 34.453 4.415 42.014 1.765 7.561-2.65 14.753-24.952 9.066-32.018-5.684-7.065-15.955 1.736-15.955 1.736S34.482.002 21.882 0c-1.587 0-3.326.278-5.232.904" data-name="Clip 170" transform="translate(.682 .571)"/></clipPath><clipPath id="J"><path d="M16.65.904C-.41 6.506 2.257 30.72 2.257 30.72S1.36 29.206 0 28.04v16.764c.827.596 1.604 1.036 2.257 1.273 9.874 3.583 34.453 4.415 42.014 1.765 7.561-2.65 14.753-24.952 9.066-32.018-5.684-7.065-15.955 1.736-15.955 1.736S34.482.002 21.882 0c-1.587 0-3.326.278-5.232.904" data-name="Clip 173" transform="translate(.682 .571)"/></clipPath><clipPath id="K"><path d="M16.65.904C-.41 6.506 2.257 30.72 2.257 30.72S1.36 29.206 0 28.04v16.764c.827.596 1.604 1.036 2.257 1.273 9.874 3.583 34.453 4.415 42.014 1.765 7.561-2.65 14.753-24.952 9.066-32.018-5.684-7.065-15.955 1.736-15.955 1.736S34.482.002 21.882 0c-1.587 0-3.326.278-5.232.904" data-name="Clip 176" transform="translate(.682 .571)"/></clipPath><clipPath id="L"><path d="M16.65.904C-.41 6.506 2.257 30.72 2.257 30.72S1.36 29.206 0 28.04v16.764c.827.596 1.604 1.036 2.257 1.273 9.874 3.583 34.453 4.415 42.014 1.765 7.561-2.65 14.753-24.952 9.066-32.018-5.684-7.065-15.955 1.736-15.955 1.736S34.482.002 21.882 0c-1.587 0-3.326.278-5.232.904Z" data-name="Clip 179" transform="translate(.682 .571)"/></clipPath><clipPath id="M"><path d="M16.65.904C-.41 6.506 2.257 30.72 2.257 30.72S1.36 29.206 0 28.04v16.764c.827.596 1.604 1.036 2.257 1.273 9.874 3.583 34.453 4.415 42.014 1.765 7.561-2.65 14.753-24.952 9.066-32.018-5.684-7.065-15.955 1.736-15.955 1.736S34.482.002 21.882 0c-1.587 0-3.326.278-5.232.904Z" data-name="Clip 182" transform="translate(.682 .571)"/></clipPath><clipPath id="N"><path d="M16.65.904C-.41 6.506 2.257 30.72 2.257 30.72S1.36 29.206 0 28.04v16.764c.827.596 1.604 1.036 2.257 1.273 9.874 3.583 34.453 4.415 42.014 1.765 7.561-2.65 14.753-24.952 9.066-32.018-5.684-7.065-15.955 1.736-15.955 1.736S34.482.002 21.882 0c-1.587 0-3.326.278-5.232.904" data-name="Clip 185" transform="translate(.682 .571)"/></clipPath></defs></svg>