<svg xmlns="http://www.w3.org/2000/svg" width="691.642" height="384.581" viewBox="-95 225.419 691.642 384.581"><g data-name="illustration"><g data-name="Group 53"><path d="M-75.271 441.894c20.186-109.116 89.355-175.905 225.281-198.736 135.925-22.83 230.796 55.672 325.956 105.65 133.082 69.897 144.732 233.546-51.153 240.884-199.018 7.456-544.357 91.501-500.084-147.798" fill="#0274bc" fill-rule="evenodd" data-name="Fill 1"/><path d="M464.55 492.495a795.175 795.175 0 0 0-71.842 4.574c-22.75 2.485-45.431 5.55-68.184 8.014-23.48 2.544-47.058 4.425-70.688 4.481-23.83.057-47.731-1.56-71.508-3.002-86.794-5.26-173.786-14.134-260.776-10.525 16.434 171.445 321.12 100.479 503.261 93.655 97.896-3.667 143.956-46.374 148.93-96.909-36.397-.436-72.794-.96-109.192-.288" fill="#f5d798" fill-rule="evenodd" data-name="Fill 5"/><path d="M38.287 498.098h61.646v-50.947H38.287v50.947Z" fill="#c8dae5" fill-rule="evenodd" data-name="Fill 7"/><path d="M115.057 560.06c0-.99 19.133-1.793 42.734-1.793 23.601 0 42.732.803 42.732 1.793 0 .99-19.131 1.793-42.732 1.793s-42.734-.802-42.734-1.793" fill="#d3e6f2" fill-rule="evenodd" data-name="Fill 9"/><path d="M361.276 560.06c0-.99 19.132-1.793 42.733-1.793 23.6 0 42.733.803 42.733 1.793 0 .99-19.132 1.793-42.733 1.793-23.601 0-42.733-.802-42.733-1.793" fill="#d3e6f2" fill-rule="evenodd" data-name="Fill 11"/><g data-name="Group 15"><g data-name="Group 15" transform="translate(-95 433.964)" clip-path="url(&quot;#a&quot;)"><path d="M.694 0c.317 16.553 1.987 33.073 6.258 48.871 2.149 7.884 4.887 15.584 8.39 22.901 3.557 7.28 7.634 14.302 12.58 20.681 9.78 12.84 22.218 23.502 36.11 31.772 1.708 1.077 3.51 2.01 5.256 3.029 1.77.983 3.574 1.905 5.365 2.851 3.63 1.805 7.297 3.542 11.043 5.117 7.472 3.194 15.145 5.959 22.95 8.34 7.798 2.413 15.724 4.457 23.724 6.216 7.993 1.791 16.07 3.256 24.18 4.557 16.22 2.654 32.636 4.185 49.082 5.45 32.925 2.32 66.049 2.514 99.225 2.333-33.002 3.404-66.262 4.912-99.55 3.712l-6.242-.247-6.24-.322c-2.08-.097-4.158-.274-6.237-.42a298.48 298.48 0 0 1-6.234-.493c-8.31-.7-16.613-1.594-24.891-2.75a365.252 365.252 0 0 1-24.726-4.335c-8.192-1.758-16.335-3.828-24.377-6.29-16.042-4.983-31.796-11.464-46.172-20.51-7.167-4.526-14.03-9.592-20.281-15.364l-2.341-2.167-2.259-2.254-1.129-1.126-1.084-1.17-2.159-2.348c-2.76-3.236-5.474-6.516-7.883-10.019-1.268-1.704-2.369-3.524-3.549-5.287l-1.641-2.725a53.46 53.46 0 0 1-1.585-2.756l-1.52-2.792c-.489-.937-.945-1.894-1.418-2.841-.976-1.878-1.758-3.848-2.621-5.775-3.253-7.8-5.702-15.89-7.455-24.09C-.07 33.301-.7 16.506.694 0" fill="#fff" fill-rule="evenodd" data-name="Fill 13"/></g></g><g data-name="Mask Group 4" transform="translate(-95 225)" clip-path="url(&quot;#b&quot;)"><path d="M10.106 281.64h100.583v-65.87H10.106v65.87Z" fill="#c8dae5" fill-rule="evenodd" data-name="Fill 16"/><path d="M141.37 281.64h-30.68v-65.87l15.339-30.297 15.34 30.297v65.87Z" fill="#e0edf6" fill-rule="evenodd" data-name="Fill 18"/><path d="m110.69 215.77 15.338-30.297h-93.4L10.107 215.77h100.583Z" fill="#c8dae5" fill-rule="evenodd" data-name="Fill 19"/><path d="M26.416 212.08h6.99v-9.4h-6.99v9.4Z" fill="#e0edf6" fill-rule="evenodd" data-name="Fill 20"/><path d="M17.392 236.897h8.636v-8.625h-8.636v8.625Z" fill="#e0edf6" fill-rule="evenodd" data-name="Fill 21"/><path d="M35.774 236.897h8.636v-8.625h-8.636v8.625Z" fill="#e0edf6" fill-rule="evenodd" data-name="Fill 22"/><path d="M54.156 236.897h8.637v-8.625h-8.637v8.625Z" fill="#e0edf6" fill-rule="evenodd" data-name="Fill 23"/><path d="M72.537 236.897h8.636v-8.625h-8.636v8.625Z" fill="#e0edf6" fill-rule="evenodd" data-name="Fill 24"/><path d="M90.92 236.897h8.636v-8.625H90.92v8.625Z" fill="#e0edf6" fill-rule="evenodd" data-name="Fill 25"/><path d="M17.392 254.286h8.636v-8.625h-8.636v8.625Z" fill="#e0edf6" fill-rule="evenodd" data-name="Fill 26"/><path d="M35.774 254.286h8.636v-8.625h-8.636v8.625Z" fill="#e0edf6" fill-rule="evenodd" data-name="Fill 27"/><path d="M54.156 254.286h8.637v-8.625h-8.637v8.625Z" fill="#e0edf6" fill-rule="evenodd" data-name="Fill 28"/><path d="M72.537 254.286h8.636v-8.625h-8.636v8.625Z" fill="#e0edf6" fill-rule="evenodd" data-name="Fill 29"/><path d="M90.92 254.286h8.636v-8.625H90.92v8.625Z" fill="#e0edf6" fill-rule="evenodd" data-name="Fill 30"/><path d="M17.392 271.672h8.636v-8.624h-8.636v8.624Z" fill="#e0edf6" fill-rule="evenodd" data-name="Fill 31"/><path d="M35.774 271.672h8.636v-8.624h-8.636v8.624Z" fill="#e0edf6" fill-rule="evenodd" data-name="Fill 32"/><path d="M54.156 271.672h8.637v-8.624h-8.637v8.624Z" fill="#e0edf6" fill-rule="evenodd" data-name="Fill 33"/><path d="M72.537 271.672h8.636v-8.624h-8.636v8.624Z" fill="#e0edf6" fill-rule="evenodd" data-name="Fill 34"/><path d="M90.92 271.672h8.636v-8.624H90.92v8.624Z" fill="#e0edf6" fill-rule="evenodd" data-name="Fill 35"/><path d="M56.902 212.08h6.99v-9.4h-6.99v9.4Z" fill="#e0edf6" fill-rule="evenodd" data-name="Fill 36"/><path d="M87.388 212.08h6.991v-9.4h-6.99v9.4Z" fill="#e0edf6" fill-rule="evenodd" data-name="Fill 37"/><path d="M123.019 205.685a3.008 3.008 0 0 1 3.01-3.005 3.008 3.008 0 0 1 3.01 3.005 3.007 3.007 0 0 1-3.01 3.006 3.008 3.008 0 0 1-3.01-3.006" fill="#fff" fill-rule="evenodd" data-name="Fill 38"/><path d="M54.156 236.897h8.637v-8.625h-8.637v8.625Z" fill="#e0edf6" fill-rule="evenodd" data-name="Fill 39"/><path d="M117.04 236.897h6.906v-8.625h-6.905v8.625Z" fill="#b7ccd9" fill-rule="evenodd" data-name="Fill 40"/><path d="M130.297 236.897h6.906v-8.625h-6.906v8.625Z" fill="#b7ccd9" fill-rule="evenodd" data-name="Fill 41"/><path d="M117.04 254.286h6.906v-8.625h-6.905v8.625Z" fill="#b7ccd9" fill-rule="evenodd" data-name="Fill 42"/><path d="M130.297 254.286h6.906v-8.625h-6.906v8.625Z" fill="#b7ccd9" fill-rule="evenodd" data-name="Fill 43"/><path d="M117.04 271.672h6.906v-8.624h-6.905v8.624Z" fill="#b7ccd9" fill-rule="evenodd" data-name="Fill 44"/><path d="M130.297 271.672h6.906v-8.624h-6.906v8.624Z" fill="#b7ccd9" fill-rule="evenodd" data-name="Fill 45"/><path d="M47.644 191.464h2.604v-10.86h-2.604v10.86Z" fill="#c8dae5" fill-rule="evenodd" data-name="Fill 46"/><path d="M106.417 193.533h1.813v-10.86h-1.813v10.86Z" fill="#c8dae5" fill-rule="evenodd" data-name="Fill 47"/><path d="M3.26 286.476c-1.161-2.386 21.523 3.337 46.198 2.667 24.674-.671 164.904-5.155 163.274-1.694-2.675 5.678-37.136 6.573-71.363 7.483-34.227.908-67.651 6.715-91.91 5.175-24.26-1.539-40.761-2.456-46.198-13.631" fill="#d3e6f2" fill-rule="evenodd" data-name="Fill 48"/><path d="M337.867.419 113.002 105.96l290.886-82.015L337.868.42Z" fill="#fff" fill-rule="evenodd" data-name="Fill 49"/><path d="m326.566 87.356 97.865-12.424s.858-14.738-12.387-14.738c-13.244 0-21.012 13.187-21.012 13.187s-.766-4.654-12.422-4.654-52.044 18.629-52.044 18.629" fill="#fff" fill-rule="evenodd" data-name="Fill 50"/><path d="M264.04 101.145c10.19-1.787 20.414-3.27 30.652-4.645 5.116-.717 10.244-1.324 15.365-1.982l15.385-1.808 15.402-1.643c5.14-.489 10.275-1.036 15.422-1.467 10.289-.922 20.589-1.737 30.923-2.244-10.19 1.791-20.415 3.276-30.652 4.65-5.116.718-10.244 1.32-15.364 1.98l-15.387 1.804-15.403 1.64c-5.14.491-10.275 1.033-15.422 1.467-10.288.921-20.588 1.737-30.922 2.248" fill="#fff" fill-rule="evenodd" data-name="Fill 51"/><path d="m691.642 143.33-120.676 46.34 111.355-23.186 9.321-23.154Z" fill="#fff" fill-rule="evenodd" data-name="Fill 52"/></g></g><g data-name="Group 141"><g data-name="Group 56"><g data-name="Group 56" transform="translate(-91 463)" clip-path="url(&quot;#c&quot;)"><path d="M183.163 18.399a.391.391 0 0 1-.06-.778c.158-.025 15.697-2.62 14.757-10.075a.39.39 0 0 1 .335-.437.393.393 0 0 1 .433.338c1.033 8.2-14.732 10.84-15.403 10.947a.411.411 0 0 1-.062.005" fill="#fff" fill-rule="evenodd" data-name="Fill 54"/></g></g><g data-name="Group 59"><g data-name="Group 59" transform="translate(-91 463)" clip-path="url(&quot;#d&quot;)"><path d="M4.034 50.754c25.648 10.879 135.515 3.078 160.295 2.664 7.993-.133 36.516-1.373 42.047-5.175 7.632-5.248 11.277-16.187 2.155-19.272-7.19-2.432-12.222 7.368-12.222 7.368s1.781-16.905-9.807-19.269c-15.75-3.213-27.155 12.37-27.155 12.37s-9.731-30.618-38.383-28.352C92.313 3.355 90.723 27.66 90.723 27.66S67.971 14.988 48.224 17.07c-19.746 2.08-24.83 19.42-24.83 19.42s-6.97-5.183-12.39-2.235c-5.421 2.95-16.263 12.558-6.97 16.498" fill="#7eacc9" fill-rule="evenodd" data-name="Fill 57"/></g></g><g data-name="Group 62"><g data-name="Group 62" transform="translate(-91 463)" clip-path="url(&quot;#e&quot;)"><path d="M7.571 51.99c25.647 10.879 131.97 1.427 156.758 1.427 11.655 0 29.108-17.94 13.904-23.194-15.203-5.253-29.119 9.033-29.119 9.033s-11.9-17.349-40.721-17.349c-16.029 0-15.23 22.258-15.23 22.258s-20.134-10.922-39.879-8.84c-19.747 2.082-25.893 9.404-25.893 9.404s-5.775-6.206-13.618-5.402c-6.7.686-15.496 8.722-6.202 12.663" fill="#7eacc9" fill-rule="evenodd" data-name="Fill 60"/></g></g><g data-name="Group 65"><g data-name="Group 65" transform="translate(-91 463)" clip-path="url(&quot;#f&quot;)"><path d="M128.397 74.834a.387.387 0 0 1-.386-.367l-5.422-86.637a.39.39 0 0 1 .363-.415c.238-.005.398.15.41.366l5.42 86.636a.39.39 0 0 1-.361.416h-.024" fill="#fff" fill-rule="evenodd" data-name="Fill 63"/></g></g><g data-name="Group 68"><g data-name="Group 68" transform="translate(-91 463)" clip-path="url(&quot;#g&quot;)"><path d="M156.661 68.628a.388.388 0 0 1-.24-.083.395.395 0 0 1-.064-.55c14.892-19.197 29.995-57.48 30.144-57.864a.388.388 0 1 1 .72.289c-.15.385-15.294 38.772-30.255 58.057a.382.382 0 0 1-.305.15" fill="#fff" fill-rule="evenodd" data-name="Fill 66"/></g></g><g data-name="Group 71"><g data-name="Group 71" transform="translate(-91 463)" clip-path="url(&quot;#h&quot;)"><path d="M74.966 71.449a.389.389 0 0 1-.314-.16c-1.568-2.184-38.404-53.578-38.018-66.83.007-.214.2-.368.399-.379a.392.392 0 0 1 .376.402c-.38 12.988 37.488 65.814 37.87 66.346a.394.394 0 0 1-.086.546.381.381 0 0 1-.227.075" fill="#fff" fill-rule="evenodd" data-name="Fill 69"/></g></g><g data-name="Group 74"><g data-name="Group 74" transform="translate(-91 463)" clip-path="url(&quot;#i&quot;)"><path d="M26.18 71.449a.382.382 0 0 1-.335-.2c-.892-1.585-21.728-38.965-15.478-48.736a.385.385 0 0 1 .536-.117c.179.118.231.36.115.541C5.02 32.314 26.3 70.481 26.516 70.865a.392.392 0 0 1-.336.584" fill="#fff" fill-rule="evenodd" data-name="Fill 72"/></g></g><g data-name="Group 77"><g data-name="Group 77" transform="translate(-91 463)" clip-path="url(&quot;#j&quot;)"><path d="M79.225 64.303a.389.389 0 0 1-.36-.246c-.808-2.017-19.768-49.509-16.65-57.46.08-.202.306-.301.503-.22a.39.39 0 0 1 .217.506c-3.004 7.665 16.45 56.39 16.648 56.882a.393.393 0 0 1-.358.538" fill="#fff" fill-rule="evenodd" data-name="Fill 75"/></g></g><g data-name="Group 80"><g data-name="Group 80" transform="translate(-91 463)" clip-path="url(&quot;#k&quot;)"><path d="M53.283 61.204a.385.385 0 0 1-.302-.146c-1.272-1.595-31.1-39.17-25.168-46.664a.385.385 0 0 1 .545-.06c.167.135.194.38.061.549-4.44 5.607 14.519 32.336 25.166 45.685a.396.396 0 0 1-.059.55.383.383 0 0 1-.243.086" fill="#fff" fill-rule="evenodd" data-name="Fill 78"/></g></g><g data-name="Group 83"><g data-name="Group 83" transform="translate(-91 463)" clip-path="url(&quot;#l&quot;)"><path d="M26.18 57.965a.385.385 0 0 1-.351-.227c-1.28-2.804-12.39-27.51-8.206-31.261a.385.385 0 0 1 .547.032.395.395 0 0 1-.034.553c-3.178 2.849 4.983 22.873 8.395 30.348.09.196.006.43-.19.52a.385.385 0 0 1-.161.035" fill="#fff" fill-rule="evenodd" data-name="Fill 81"/></g></g><g data-name="Group 86"><g data-name="Group 86" transform="translate(-91 463)" clip-path="url(&quot;#m&quot;)"><path d="M114.845 57.965a.385.385 0 0 1-.349-.222c-.92-1.944-22.458-47.789-16.273-64.06a.384.384 0 0 1 .499-.224c.2.076.3.303.223.504-6.065 15.96 16.026 62.97 16.25 63.442.092.196.01.43-.182.523a.402.402 0 0 1-.168.037" fill="#fff" fill-rule="evenodd" data-name="Fill 84"/></g></g><g data-name="Group 89"><g data-name="Group 89" transform="translate(-91 463)" clip-path="url(&quot;#n&quot;)"><path d="M142.724 59.97a.39.39 0 0 1-.383-.45c.076-.517 7.732-51.781 7.35-61.142a.388.388 0 0 1 .373-.405c.211-.03.393.158.402.374.384 9.434-7.044 59.178-7.361 61.289a.386.386 0 0 1-.381.333" fill="#fff" fill-rule="evenodd" data-name="Fill 87"/></g></g><g data-name="Group 92"><g data-name="Group 92" transform="translate(-91 463)" clip-path="url(&quot;#o&quot;)"><path d="M86.967 57.965a.388.388 0 0 1-.384-.353c-.16-1.669-3.821-40.925 2.031-47.595a.384.384 0 0 1 .548-.034c.158.143.174.39.032.55-5.63 6.42-1.878 46.599-1.84 47.004a.39.39 0 0 1-.35.426l-.037.002" fill="#fff" fill-rule="evenodd" data-name="Fill 90"/></g></g><g data-name="Group 95"><g data-name="Group 95" transform="translate(-91 463)" clip-path="url(&quot;#p&quot;)"><path d="m156.662 62.055-.049-.002a.39.39 0 0 1-.335-.437c.221-1.799 5.507-44.126 11.716-50.87a.387.387 0 0 1 .547-.02.395.395 0 0 1 .02.553c-6.04 6.56-11.461 49.995-11.516 50.434a.387.387 0 0 1-.383.342" fill="#fff" fill-rule="evenodd" data-name="Fill 93"/></g></g><g data-name="Group 98"><g data-name="Group 98" transform="translate(-91 463)" clip-path="url(&quot;#q&quot;)"><path d="M171.761 68.014a.392.392 0 0 1-.322-.608c.267-.404 26.64-40.551 26.264-47.951a.39.39 0 0 1 .367-.412c.227-.02.395.156.407.37.389 7.66-25.299 46.765-26.393 48.427a.387.387 0 0 1-.323.174" fill="#fff" fill-rule="evenodd" data-name="Fill 96"/></g></g><g data-name="Group 101"><g data-name="Group 101" transform="translate(-91 463)" clip-path="url(&quot;#r&quot;)"><path d="M183.104 71.108a.383.383 0 0 1-.23-.077.394.394 0 0 1-.08-.547c10.919-14.869 31.222-44.505 29.908-50.242a.387.387 0 1 1 .755-.176c1.722 7.52-28.744 49.116-30.042 50.884a.386.386 0 0 1-.31.158" fill="#fff" fill-rule="evenodd" data-name="Fill 99"/></g></g><g data-name="Group 104"><g data-name="Group 104" transform="translate(-91 463)" clip-path="url(&quot;#s&quot;)"><path d="M125.414 27.16a.378.378 0 0 1-.263-.105c-.994-.93-24.302-22.842-21.1-28.877a.385.385 0 0 1 .523-.16c.189.102.26.34.158.53-2.424 4.57 14.297 21.714 20.945 27.933a.394.394 0 0 1 .022.553.383.383 0 0 1-.285.126" fill="#fff" fill-rule="evenodd" data-name="Fill 102"/></g></g><g data-name="Group 107"><g data-name="Group 107" transform="translate(-91 463)" clip-path="url(&quot;#t&quot;)"><path d="M126.31 41.466a.388.388 0 0 1-.34-.579c.21-.386 20.897-38.728 16.427-45.784a.394.394 0 0 1 .117-.54.386.386 0 0 1 .535.118c4.715 7.444-15.535 44.986-16.4 46.582a.386.386 0 0 1-.34.203" fill="#fff" fill-rule="evenodd" data-name="Fill 105"/></g></g><g data-name="Group 110"><g data-name="Group 110" transform="translate(-91 463)" clip-path="url(&quot;#u&quot;)"><path d="M86.07 45.12a.38.38 0 0 1-.338-.202c-.633-1.143-15.429-28.076-12.666-33.99a.386.386 0 0 1 .516-.187.393.393 0 0 1 .185.522c-2.595 5.553 12.487 32.998 12.64 33.275a.393.393 0 0 1-.338.581" fill="#fff" fill-rule="evenodd" data-name="Fill 108"/></g></g><g data-name="Group 113"><g data-name="Group 113" transform="translate(-91 463)" clip-path="url(&quot;#v&quot;)"><path d="M67.369 31.515a.385.385 0 0 1-.272-.111c-.756-.751-18.484-18.447-15.73-26.902a.384.384 0 0 1 .488-.25.392.392 0 0 1 .247.494c-2.604 7.997 15.356 25.919 15.538 26.098a.396.396 0 0 1 .004.554.383.383 0 0 1-.275.117" fill="#fff" fill-rule="evenodd" data-name="Fill 111"/></g></g><g data-name="Group 116"><g data-name="Group 116" transform="translate(-91 463)" clip-path="url(&quot;#w&quot;)"><path d="M43.865 48.634a.383.383 0 0 1-.245-.088c-1.067-.881-26.117-21.66-26.952-29.067a.39.39 0 0 1 .34-.434c.206-.03.404.13.43.344.8 7.094 26.413 28.337 26.67 28.55a.393.393 0 0 1-.243.695" fill="#fff" fill-rule="evenodd" data-name="Fill 114"/></g></g><g data-name="Group 119"><g data-name="Group 119" transform="translate(-91 463)" clip-path="url(&quot;#x&quot;)"><path d="M144.298 49.155a.392.392 0 0 1-.342-.573c.149-.291 15.042-29.035 15.469-33.978a.38.38 0 0 1 .42-.355.39.39 0 0 1 .352.423c-.441 5.098-14.94 33.083-15.556 34.273a.386.386 0 0 1-.343.21" fill="#fff" fill-rule="evenodd" data-name="Fill 117"/></g></g><g data-name="Group 122"><g data-name="Group 122" transform="translate(-91 463)" clip-path="url(&quot;#y&quot;)"><path d="m173.015 41.411-.02-.001a.389.389 0 0 1-.366-.41c.059-1.242 1.512-30.515 5.993-37.851a.384.384 0 0 1 .534-.127c.18.113.237.354.126.538-4.378 7.166-5.865 37.176-5.88 37.478a.388.388 0 0 1-.387.373" fill="#fff" fill-rule="evenodd" data-name="Fill 120"/></g></g><g data-name="Group 125"><g data-name="Group 125" transform="translate(-91 463)" clip-path="url(&quot;#z&quot;)"><path d="M110.73 48.634a.388.388 0 0 1-.31-.155c-1.132-1.506-27.725-36.973-24.715-45.26a.387.387 0 0 1 .497-.232c.2.075.304.3.231.502-2.868 7.887 24.33 44.151 24.605 44.517a.396.396 0 0 1-.073.548.388.388 0 0 1-.236.08" fill="#fff" fill-rule="evenodd" data-name="Fill 123"/></g></g><g data-name="Group 128"><g data-name="Group 128" transform="translate(-91 463)" clip-path="url(&quot;#A&quot;)"><path d="M47.76 29.886a.389.389 0 0 1-.387-.382c-.003-.143-.325-14.315-3.864-22.61a.392.392 0 0 1 .202-.513.386.386 0 0 1 .51.204c3.6 8.435 3.923 22.758 3.926 22.902a.39.39 0 0 1-.38.4h-.008Z" fill="#fff" fill-rule="evenodd" data-name="Fill 126"/></g></g><g data-name="Group 131"><g data-name="Group 131" transform="translate(-91 463)" clip-path="url(&quot;#B&quot;)"><path d="M13.773 45.12a.398.398 0 0 1-.104-.015c-.472-.132-11.585-3.331-13.64-11.079a.388.388 0 1 1 .748-.203c1.94 7.315 12.989 10.497 13.1 10.529a.392.392 0 0 1-.104.767" fill="#fff" fill-rule="evenodd" data-name="Fill 129"/></g></g><g data-name="Group 134"><g data-name="Group 134" transform="translate(-91 463)" clip-path="url(&quot;#C&quot;)"><path d="M138.825 15.03a.387.387 0 0 1-.336-.196c-.305-.532-7.415-13.104-3.993-21.166a.385.385 0 0 1 .508-.205.393.393 0 0 1 .204.514c-3.272 7.705 3.879 20.338 3.951 20.465a.393.393 0 0 1-.14.535.384.384 0 0 1-.194.052" fill="#fff" fill-rule="evenodd" data-name="Fill 132"/></g></g><g data-name="Group 137"><g data-name="Group 137" transform="translate(-91 463)" clip-path="url(&quot;#D&quot;)"><path d="M201 45.12h-.016a.39.39 0 0 1-.371-.407c.03-.761.754-18.711 2.684-24.681a.386.386 0 0 1 .488-.25.394.394 0 0 1 .248.493c-1.898 5.867-2.639 24.284-2.646 24.47a.389.389 0 0 1-.387.374" fill="#fff" fill-rule="evenodd" data-name="Fill 135"/></g></g><g data-name="Group 140"><g data-name="Group 140" transform="translate(-91 463)" clip-path="url(&quot;#E&quot;)"><path d="M190.727 65.37a.39.39 0 0 1-.38-.464c.055-.304 5.702-30.711 7.57-37.105a.389.389 0 0 1 .482-.264.391.391 0 0 1 .26.486c-1.856 6.356-7.496 36.723-7.553 37.03a.386.386 0 0 1-.38.318" fill="#fff" fill-rule="evenodd" data-name="Fill 138"/></g></g></g><path d="M106 531h272v-34H106v34Z" fill="#452b21" fill-rule="evenodd" data-name="Fill 142"/><g data-name="Group 188"><path d="M243.887 505H21.113A1.11 1.11 0 0 1 20 503.89V389.11A1.11 1.11 0 0 1 21.113 388h222.774a1.11 1.11 0 0 1 1.113 1.109V503.89c0 .613-.498 1.11-1.113 1.11" fill="#f2bb25" fill-rule="evenodd" data-name="Fill 143"/><path d="M20 467.462v36.427c0 .614.498 1.111 1.113 1.111h222.774c.615 0 1.113-.497 1.113-1.11V416c-7.37 2.047-204.19 46.157-225 51.462" fill="#f2bb25" fill-rule="evenodd" data-name="Fill 145"/><path d="M22.922 395.547c1.679-2.195 3.612-3.968 5.685-5.665.771-.63.332-1.882-.662-1.882h-5.89c-.582 0-1.055.474-1.055 1.06v5.883c0 1.02 1.283 1.442 1.901.63l.021-.026" fill="#633e2f" fill-rule="evenodd" data-name="Fill 147"/><path d="M26.564 503.017a32.31 32.31 0 0 1-3.78-3.663c-.64-.73-1.784-.258-1.784.744v3.802c0 .608.46 1.1 1.03 1.1h3.954c.981 0 1.386-1.324.606-1.962l-.026-.02" fill="#633e2f" fill-rule="evenodd" data-name="Fill 149"/><path d="M246 392.837v-4.678c0-.64-.483-1.159-1.08-1.159h-4.84c-1.03 0-1.471 1.393-.66 2.073a46.727 46.727 0 0 1 4.732 4.574c.671.747 1.848.229 1.848-.81" fill="#633e2f" fill-rule="evenodd" data-name="Fill 151"/><path d="M241.264 502.345c-.295.284-.597.562-.905.835-.762.676-.232 1.82.852 1.82h3.575c.67 0 1.214-.477 1.214-1.065v-3.87c0-1.057-1.561-1.465-2.225-.584a23.882 23.882 0 0 1-2.51 2.864" fill="#633e2f" fill-rule="evenodd" data-name="Fill 153"/><path d="M73 522H61v-9.167c0-3.221 2.687-5.833 6-5.833 3.314 0 6 2.612 6 5.833V522Z" fill="#633e2f" fill-rule="evenodd" data-name="Fill 155"/><path d="M137 522h-12v-9.167c0-3.221 2.686-5.833 6-5.833s6 2.612 6 5.833V522Z" fill="#633e2f" fill-rule="evenodd" data-name="Fill 157"/><path d="M161 522h-12v-9.167c0-3.221 2.687-5.833 6-5.833 3.314 0 6 2.612 6 5.833V522Z" fill="#633e2f" fill-rule="evenodd" data-name="Fill 159"/><path d="M185 522h-12v-9.167c0-3.221 2.686-5.833 6-5.833s6 2.612 6 5.833V522Z" fill="#633e2f" fill-rule="evenodd" data-name="Fill 161"/><path d="M209 522h-12v-9.167c0-3.221 2.686-5.833 6-5.833s6 2.612 6 5.833V522Z" fill="#633e2f" fill-rule="evenodd" data-name="Fill 163"/><path d="M233 522h-12v-9.167c0-3.221 2.686-5.833 6-5.833s6 2.612 6 5.833V522Z" fill="#633e2f" fill-rule="evenodd" data-name="Fill 165"/><path d="M44 505h5v18h-2.206c-1.543 0-2.794-1.215-2.794-2.714V505Z" fill="#633e2f" fill-rule="evenodd" data-name="Fill 167"/><g data-name="Group 188" transform="translate(-95 302)" clip-path="url(&quot;#F&quot;)"><path d="M140 215h2v-7h-2v7Z" fill="#e04428" fill-rule="evenodd" data-name="Fill 169"/><path d="M340 220h4V120h-4v100Z" fill="#633e2f" fill-rule="evenodd" data-name="Fill 171"/><path d="M425 171.397V220h-81V120h48.375c3.375 0 7.875 33.52 14.062 36.592 6.188 3.074 18.563 8.38 18.563 14.805" fill="#f2bb25" fill-rule="evenodd" data-name="Fill 172"/><path d="M345.737 112h23.688c4.761 0 9.463 1.091 13.765 3.206 4.165 2.048 8.864 4.548 9.769 5.812 1.689 2.359-48.959-.273-48.959-.273v-6.947c0-.992.777-1.798 1.737-1.798" fill="#f5d798" fill-rule="evenodd" data-name="Fill 173"/><path d="M387 220v-20h38.514c4.217 0 5.06 20 0 20H387Z" fill="#633e2f" fill-rule="evenodd" data-name="Fill 174"/><path d="M425 173v16a8.002 8.002 0 0 1-7.653-5.655A8.018 8.018 0 0 1 417 181c0-4.42 3.58-8 8-8" fill="#e04428" fill-rule="evenodd" data-name="Fill 175"/><path d="M425 178v11c-3.766 0-6.95-2.312-8-5.5 1.05-3.187 4.234-5.5 8-5.5" fill="#f5d798" fill-rule="evenodd" data-name="Fill 176"/><path d="M353.5 193c-.201 0-.363-.126-.363-.281v-30.437c0-.156.162-.282.363-.282.2 0 .363.126.363.282v30.437c0 .155-.162.281-.363.281" fill="#633e2f" fill-rule="evenodd" data-name="Fill 177"/><path d="M401.225 158.698c3.124-1.728 6.32-4.288 6.32-4.288s-3.297-.553-3.16-3.319.66-6.916 3.902-5.948 4.478 5.809 3.242 8.437c-1.237 2.629-4.121 8.714-6.045 9.959-1.923 1.245-4.121-.276-5.083-1.66-.96-1.383.002-2.726.824-3.181" fill="#f2bb25" fill-rule="evenodd" data-name="Fill 178"/><path d="M408.253 154a.214.214 0 0 1-.093-.023c-.13-.07-.194-.266-.142-.44.14-.476.313-.939.512-1.375.074-.16.23-.21.348-.112.12.098.158.305.085.465-.184.403-.345.83-.474 1.27-.04.134-.135.215-.236.215" fill="#633e2f" fill-rule="evenodd" data-name="Fill 179"/><path d="M174 223c0-10.493 8.506-19 19-19s19 8.507 19 19c0 10.494-8.506 19-19 19s-19-8.506-19-19" fill="#633e2f" fill-rule="evenodd" data-name="Fill 180"/><path d="M183 223c0-5.522 4.477-10 10-10s10 4.478 10 10c0 5.523-4.477 10-10 10s-10-4.477-10-10" fill="#7098b3" fill-rule="evenodd" data-name="Fill 181"/><path d="M190 223a3 3 0 1 1 6-.001 3 3 0 0 1-6 .001" fill="#0e4161" fill-rule="evenodd" data-name="Fill 182"/><path d="M341 221s.042-27 27.744-27c27.702 0 24.103 27 24.103 27H341Z" fill="#f2bb25" fill-rule="evenodd" data-name="Fill 183"/><path d="M348 223c0-10.493 8.507-19 19-19 10.494 0 19 8.507 19 19 0 10.494-8.506 19-19 19-10.493 0-19-8.506-19-19" fill="#633e2f" fill-rule="evenodd" data-name="Fill 184"/><path d="M357 223c0-5.522 4.477-10 10-10s10 4.478 10 10c0 5.523-4.477 10-10 10s-10-4.477-10-10" fill="#7098b3" fill-rule="evenodd" data-name="Fill 185"/><path d="M364 223a3 3 0 1 1 6 0 3 3 0 0 1-6 0" fill="#0e4161" fill-rule="evenodd" data-name="Fill 186"/><path d="M346.28 204a.285.285 0 0 1-.176-.06.263.263 0 0 1-.043-.377c8.835-10.638 23.334-12.522 38.785-5.041a.264.264 0 0 1 .124.36.286.286 0 0 1-.375.12c-15.198-7.358-29.44-5.528-38.098 4.897a.283.283 0 0 1-.218.101" fill="#633e2f" fill-rule="evenodd" data-name="Fill 187"/></g></g><g data-name="Group 274"><path d="M307.706 467a4.689 4.689 0 0 1-1.533-.254c-1.59-.55-2.497-1.918-2.066-3.114.048-.132.207-.206.363-.165.152.042.237.184.189.317-.34.945.418 2.04 1.728 2.493 1.929.668 4.797-.068 7.063-4.134.07-.126.243-.178.387-.117.144.06.203.212.134.337-1.912 3.43-4.284 4.637-6.265 4.637" fill="#633e2f" fill-rule="evenodd" data-name="Fill 268"/><path d="M78.28 522a.272.272 0 0 1-.081-.012.272.272 0 0 1-.187-.34C81.21 511.265 87.599 506 96.999 506c7.294 0 16.645 4.105 18.996 15.673a.273.273 0 0 1-.22.321.278.278 0 0 1-.327-.214c-2.285-11.245-11.366-15.234-18.449-15.234-9.126 0-15.334 5.133-18.453 15.26a.28.28 0 0 1-.267.194" fill="#072130" fill-rule="evenodd" data-name="Fill 270"/><path d="M290.715 522a.283.283 0 0 1-.275-.207c-3.838-14.82-17.53-15.247-19.08-15.247-2.626 0-15.875.734-18.796 15.233a.29.29 0 0 1-.334.216.273.273 0 0 1-.225-.32c3.007-14.92 16.65-15.675 19.356-15.675 1.594 0 15.689.44 19.63 15.661a.274.274 0 0 1-.206.33.325.325 0 0 1-.07.009" fill="#072130" fill-rule="evenodd" data-name="Fill 272"/></g></g><defs><clipPath id="a"><path d="M0 0h304.857v166.238H0V0Z" data-name="Clip 14"/></clipPath><clipPath id="b"><path d="M0 384.58h691.641V0H0v384.58Z" data-name="Clip 17" transform="translate(0 .42)"/></clipPath><clipPath id="c"><path d="M120.561.12c-28.651 2.268-30.24 26.572-30.24 26.572s-22.754-12.671-42.5-10.589c-19.746 2.081-24.83 19.42-24.83 19.42S16.02 30.34 10.6 33.29C5.18 36.238-5.661 45.846 3.63 49.787c25.648 10.878 135.515 3.078 160.295 2.663 7.993-.134 36.516-1.374 42.047-5.174 7.632-5.25 11.276-16.188 2.155-19.274-7.189-2.43-12.222 7.368-12.222 7.368s1.782-16.904-9.806-19.267c-15.751-3.213-27.156 12.368-27.156 12.368S149.895.001 123.557 0c-.975 0-1.972.04-2.996.12" data-name="Clip 55" transform="translate(.403 .968)"/></clipPath><clipPath id="d"><path d="M120.561.12c-28.651 2.268-30.24 26.572-30.24 26.572s-22.754-12.671-42.5-10.589c-19.746 2.081-24.83 19.42-24.83 19.42S16.02 30.34 10.6 33.29C5.18 36.238-5.661 45.846 3.63 49.787c25.648 10.878 135.515 3.078 160.295 2.663 7.993-.134 36.516-1.374 42.047-5.174 7.632-5.25 11.276-16.188 2.155-19.274-7.189-2.43-12.222 7.368-12.222 7.368s1.782-16.904-9.806-19.267c-15.751-3.213-27.156 12.368-27.156 12.368S149.895.001 123.557 0c-.975 0-1.972.04-2.996.12" data-name="Clip 58" transform="translate(.403 .968)"/></clipPath><clipPath id="e"><path d="M120.561.12c-28.651 2.268-30.24 26.572-30.24 26.572s-22.754-12.671-42.5-10.589c-19.746 2.081-24.83 19.42-24.83 19.42S16.02 30.34 10.6 33.29C5.18 36.238-5.661 45.846 3.63 49.787c25.648 10.878 135.515 3.078 160.295 2.663 7.993-.134 36.516-1.374 42.047-5.174 7.632-5.25 11.276-16.188 2.155-19.274-7.189-2.43-12.222 7.368-12.222 7.368s1.782-16.904-9.806-19.267c-15.751-3.213-27.156 12.368-27.156 12.368S149.895.001 123.557 0c-.975 0-1.972.04-2.996.12" data-name="Clip 61" transform="translate(.403 .968)"/></clipPath><clipPath id="f"><path d="M120.561.12c-28.651 2.268-30.24 26.572-30.24 26.572s-22.754-12.671-42.5-10.589c-19.746 2.081-24.83 19.42-24.83 19.42S16.02 30.34 10.6 33.29C5.18 36.238-5.661 45.846 3.63 49.787c25.648 10.878 135.515 3.078 160.295 2.663 7.993-.134 36.516-1.374 42.047-5.174 7.632-5.25 11.276-16.188 2.155-19.274-7.189-2.43-12.222 7.368-12.222 7.368s1.782-16.904-9.806-19.267c-15.751-3.213-27.156 12.368-27.156 12.368S149.895.001 123.557 0c-.975 0-1.972.04-2.996.12" data-name="Clip 64" transform="translate(.403 .968)"/></clipPath><clipPath id="g"><path d="M120.561.12c-28.651 2.268-30.24 26.572-30.24 26.572s-22.754-12.671-42.5-10.589c-19.746 2.081-24.83 19.42-24.83 19.42S16.02 30.34 10.6 33.29C5.18 36.238-5.661 45.846 3.63 49.787c25.648 10.878 135.515 3.078 160.295 2.663 7.993-.134 36.516-1.374 42.047-5.174 7.632-5.25 11.276-16.188 2.155-19.274-7.189-2.43-12.222 7.368-12.222 7.368s1.782-16.904-9.806-19.267c-15.751-3.213-27.156 12.368-27.156 12.368S149.895.001 123.557 0c-.975 0-1.972.04-2.996.12" data-name="Clip 67" transform="translate(.403 .968)"/></clipPath><clipPath id="h"><path d="M120.561.12c-28.651 2.268-30.24 26.572-30.24 26.572s-22.754-12.671-42.5-10.589c-19.746 2.081-24.83 19.42-24.83 19.42S16.02 30.34 10.6 33.29C5.18 36.238-5.661 45.846 3.63 49.787c25.648 10.878 135.515 3.078 160.295 2.663 7.993-.134 36.516-1.374 42.047-5.174 7.632-5.25 11.276-16.188 2.155-19.274-7.189-2.43-12.222 7.368-12.222 7.368s1.782-16.904-9.806-19.267c-15.751-3.213-27.156 12.368-27.156 12.368S149.895.001 123.557 0c-.975 0-1.972.04-2.996.12" data-name="Clip 70" transform="translate(.403 .968)"/></clipPath><clipPath id="i"><path d="M120.561.12c-28.651 2.268-30.24 26.572-30.24 26.572s-22.754-12.671-42.5-10.589c-19.746 2.081-24.83 19.42-24.83 19.42S16.02 30.34 10.6 33.29C5.18 36.238-5.661 45.846 3.63 49.787c25.648 10.878 135.515 3.078 160.295 2.663 7.993-.134 36.516-1.374 42.047-5.174 7.632-5.25 11.276-16.188 2.155-19.274-7.189-2.43-12.222 7.368-12.222 7.368s1.782-16.904-9.806-19.267c-15.751-3.213-27.156 12.368-27.156 12.368S149.895.001 123.557 0c-.975 0-1.972.04-2.996.12" data-name="Clip 73" transform="translate(.403 .968)"/></clipPath><clipPath id="j"><path d="M120.561.12c-28.651 2.268-30.24 26.572-30.24 26.572s-22.754-12.671-42.5-10.589c-19.746 2.081-24.83 19.42-24.83 19.42S16.02 30.34 10.6 33.29C5.18 36.238-5.661 45.846 3.63 49.787c25.648 10.878 135.515 3.078 160.295 2.663 7.993-.134 36.516-1.374 42.047-5.174 7.632-5.25 11.276-16.188 2.155-19.274-7.189-2.43-12.222 7.368-12.222 7.368s1.782-16.904-9.806-19.267c-15.751-3.213-27.156 12.368-27.156 12.368S149.895.001 123.557 0c-.975 0-1.972.04-2.996.12" data-name="Clip 76" transform="translate(.403 .968)"/></clipPath><clipPath id="k"><path d="M120.561.12c-28.651 2.268-30.24 26.572-30.24 26.572s-22.754-12.671-42.5-10.589c-19.746 2.081-24.83 19.42-24.83 19.42S16.02 30.34 10.6 33.29C5.18 36.238-5.661 45.846 3.63 49.787c25.648 10.878 135.515 3.078 160.295 2.663 7.993-.134 36.516-1.374 42.047-5.174 7.632-5.25 11.276-16.188 2.155-19.274-7.189-2.43-12.222 7.368-12.222 7.368s1.782-16.904-9.806-19.267c-15.751-3.213-27.156 12.368-27.156 12.368S149.895.001 123.557 0c-.975 0-1.972.04-2.996.12" data-name="Clip 79" transform="translate(.403 .968)"/></clipPath><clipPath id="l"><path d="M120.561.12c-28.651 2.268-30.24 26.572-30.24 26.572s-22.754-12.671-42.5-10.589c-19.746 2.081-24.83 19.42-24.83 19.42S16.02 30.34 10.6 33.29C5.18 36.238-5.661 45.846 3.63 49.787c25.648 10.878 135.515 3.078 160.295 2.663 7.993-.134 36.516-1.374 42.047-5.174 7.632-5.25 11.276-16.188 2.155-19.274-7.189-2.43-12.222 7.368-12.222 7.368s1.782-16.904-9.806-19.267c-15.751-3.213-27.156 12.368-27.156 12.368S149.895.001 123.557 0c-.975 0-1.972.04-2.996.12" data-name="Clip 82" transform="translate(.403 .968)"/></clipPath><clipPath id="m"><path d="M120.561.12c-28.651 2.268-30.24 26.572-30.24 26.572s-22.754-12.671-42.5-10.589c-19.746 2.081-24.83 19.42-24.83 19.42S16.02 30.34 10.6 33.29C5.18 36.238-5.661 45.846 3.63 49.787c25.648 10.878 135.515 3.078 160.295 2.663 7.993-.134 36.516-1.374 42.047-5.174 7.632-5.25 11.276-16.188 2.155-19.274-7.189-2.43-12.222 7.368-12.222 7.368s1.782-16.904-9.806-19.267c-15.751-3.213-27.156 12.368-27.156 12.368S149.895.001 123.557 0c-.975 0-1.972.04-2.996.12" data-name="Clip 85" transform="translate(.403 .968)"/></clipPath><clipPath id="n"><path d="M120.561.12c-28.651 2.268-30.24 26.572-30.24 26.572s-22.754-12.671-42.5-10.589c-19.746 2.081-24.83 19.42-24.83 19.42S16.02 30.34 10.6 33.29C5.18 36.238-5.661 45.846 3.63 49.787c25.648 10.878 135.515 3.078 160.295 2.663 7.993-.134 36.516-1.374 42.047-5.174 7.632-5.25 11.276-16.188 2.155-19.274-7.189-2.43-12.222 7.368-12.222 7.368s1.782-16.904-9.806-19.267c-15.751-3.213-27.156 12.368-27.156 12.368S149.895.001 123.557 0c-.975 0-1.972.04-2.996.12" data-name="Clip 88" transform="translate(.403 .968)"/></clipPath><clipPath id="o"><path d="M120.561.12c-28.651 2.268-30.24 26.572-30.24 26.572s-22.754-12.671-42.5-10.589c-19.746 2.081-24.83 19.42-24.83 19.42S16.02 30.34 10.6 33.29C5.18 36.238-5.661 45.846 3.63 49.787c25.648 10.878 135.515 3.078 160.295 2.663 7.993-.134 36.516-1.374 42.047-5.174 7.632-5.25 11.276-16.188 2.155-19.274-7.189-2.43-12.222 7.368-12.222 7.368s1.782-16.904-9.806-19.267c-15.751-3.213-27.156 12.368-27.156 12.368S149.895.001 123.557 0c-.975 0-1.972.04-2.996.12" data-name="Clip 91" transform="translate(.403 .968)"/></clipPath><clipPath id="p"><path d="M120.561.12c-28.651 2.268-30.24 26.572-30.24 26.572s-22.754-12.671-42.5-10.589c-19.746 2.081-24.83 19.42-24.83 19.42S16.02 30.34 10.6 33.29C5.18 36.238-5.661 45.846 3.63 49.787c25.648 10.878 135.515 3.078 160.295 2.663 7.993-.134 36.516-1.374 42.047-5.174 7.632-5.25 11.276-16.188 2.155-19.274-7.189-2.43-12.222 7.368-12.222 7.368s1.782-16.904-9.806-19.267c-15.751-3.213-27.156 12.368-27.156 12.368S149.895.001 123.557 0c-.975 0-1.972.04-2.996.12" data-name="Clip 94" transform="translate(.403 .968)"/></clipPath><clipPath id="q"><path d="M120.561.12c-28.651 2.268-30.24 26.572-30.24 26.572s-22.754-12.671-42.5-10.589c-19.746 2.081-24.83 19.42-24.83 19.42S16.02 30.34 10.6 33.29C5.18 36.238-5.661 45.846 3.63 49.787c25.648 10.878 135.515 3.078 160.295 2.663 7.993-.134 36.516-1.374 42.047-5.174 7.632-5.25 11.276-16.188 2.155-19.274-7.189-2.43-12.222 7.368-12.222 7.368s1.782-16.904-9.806-19.267c-15.751-3.213-27.156 12.368-27.156 12.368S149.895.001 123.557 0c-.975 0-1.972.04-2.996.12" data-name="Clip 97" transform="translate(.403 .968)"/></clipPath><clipPath id="r"><path d="M120.561.12c-28.651 2.268-30.24 26.572-30.24 26.572s-22.754-12.671-42.5-10.589c-19.746 2.081-24.83 19.42-24.83 19.42S16.02 30.34 10.6 33.29C5.18 36.238-5.661 45.846 3.63 49.787c25.648 10.878 135.515 3.078 160.295 2.663 7.993-.134 36.516-1.374 42.047-5.174 7.632-5.25 11.276-16.188 2.155-19.274-7.189-2.43-12.222 7.368-12.222 7.368s1.782-16.904-9.806-19.267c-15.751-3.213-27.156 12.368-27.156 12.368S149.895.001 123.557 0c-.975 0-1.972.04-2.996.12" data-name="Clip 100" transform="translate(.403 .968)"/></clipPath><clipPath id="s"><path d="M120.561.12c-28.651 2.268-30.24 26.572-30.24 26.572s-22.754-12.671-42.5-10.589c-19.746 2.081-24.83 19.42-24.83 19.42S16.02 30.34 10.6 33.29C5.18 36.238-5.661 45.846 3.63 49.787c25.648 10.878 135.515 3.078 160.295 2.663 7.993-.134 36.516-1.374 42.047-5.174 7.632-5.25 11.276-16.188 2.155-19.274-7.189-2.43-12.222 7.368-12.222 7.368s1.782-16.904-9.806-19.267c-15.751-3.213-27.156 12.368-27.156 12.368S149.895.001 123.557 0c-.975 0-1.972.04-2.996.12" data-name="Clip 103" transform="translate(.403 .968)"/></clipPath><clipPath id="t"><path d="M120.561.12c-28.651 2.268-30.24 26.572-30.24 26.572s-22.754-12.671-42.5-10.589c-19.746 2.081-24.83 19.42-24.83 19.42S16.02 30.34 10.6 33.29C5.18 36.238-5.661 45.846 3.63 49.787c25.648 10.878 135.515 3.078 160.295 2.663 7.993-.134 36.516-1.374 42.047-5.174 7.632-5.25 11.276-16.188 2.155-19.274-7.189-2.43-12.222 7.368-12.222 7.368s1.782-16.904-9.806-19.267c-15.751-3.213-27.156 12.368-27.156 12.368S149.895.001 123.557 0c-.975 0-1.972.04-2.996.12" data-name="Clip 106" transform="translate(.403 .968)"/></clipPath><clipPath id="u"><path d="M120.561.12c-28.651 2.268-30.24 26.572-30.24 26.572s-22.754-12.671-42.5-10.589c-19.746 2.081-24.83 19.42-24.83 19.42S16.02 30.34 10.6 33.29C5.18 36.238-5.661 45.846 3.63 49.787c25.648 10.878 135.515 3.078 160.295 2.663 7.993-.134 36.516-1.374 42.047-5.174 7.632-5.25 11.276-16.188 2.155-19.274-7.189-2.43-12.222 7.368-12.222 7.368s1.782-16.904-9.806-19.267c-15.751-3.213-27.156 12.368-27.156 12.368S149.895.001 123.557 0c-.975 0-1.972.04-2.996.12" data-name="Clip 109" transform="translate(.403 .968)"/></clipPath><clipPath id="v"><path d="M120.561.12c-28.651 2.268-30.24 26.572-30.24 26.572s-22.754-12.671-42.5-10.589c-19.746 2.081-24.83 19.42-24.83 19.42S16.02 30.34 10.6 33.29C5.18 36.238-5.661 45.846 3.63 49.787c25.648 10.878 135.515 3.078 160.295 2.663 7.993-.134 36.516-1.374 42.047-5.174 7.632-5.25 11.276-16.188 2.155-19.274-7.189-2.43-12.222 7.368-12.222 7.368s1.782-16.904-9.806-19.267c-15.751-3.213-27.156 12.368-27.156 12.368S149.895.001 123.557 0c-.975 0-1.972.04-2.996.12" data-name="Clip 112" transform="translate(.403 .968)"/></clipPath><clipPath id="w"><path d="M120.561.12c-28.651 2.268-30.24 26.572-30.24 26.572s-22.754-12.671-42.5-10.589c-19.746 2.081-24.83 19.42-24.83 19.42S16.02 30.34 10.6 33.29C5.18 36.238-5.661 45.846 3.63 49.787c25.648 10.878 135.515 3.078 160.295 2.663 7.993-.134 36.516-1.374 42.047-5.174 7.632-5.25 11.276-16.188 2.155-19.274-7.189-2.43-12.222 7.368-12.222 7.368s1.782-16.904-9.806-19.267c-15.751-3.213-27.156 12.368-27.156 12.368S149.895.001 123.557 0c-.975 0-1.972.04-2.996.12" data-name="Clip 115" transform="translate(.403 .968)"/></clipPath><clipPath id="x"><path d="M120.561.12c-28.651 2.268-30.24 26.572-30.24 26.572s-22.754-12.671-42.5-10.589c-19.746 2.081-24.83 19.42-24.83 19.42S16.02 30.34 10.6 33.29C5.18 36.238-5.661 45.846 3.63 49.787c25.648 10.878 135.515 3.078 160.295 2.663 7.993-.134 36.516-1.374 42.047-5.174 7.632-5.25 11.276-16.188 2.155-19.274-7.189-2.43-12.222 7.368-12.222 7.368s1.782-16.904-9.806-19.267c-15.751-3.213-27.156 12.368-27.156 12.368S149.895.001 123.557 0c-.975 0-1.972.04-2.996.12" data-name="Clip 118" transform="translate(.403 .968)"/></clipPath><clipPath id="y"><path d="M120.561.12c-28.651 2.268-30.24 26.572-30.24 26.572s-22.754-12.671-42.5-10.589c-19.746 2.081-24.83 19.42-24.83 19.42S16.02 30.34 10.6 33.29C5.18 36.238-5.661 45.846 3.63 49.787c25.648 10.878 135.515 3.078 160.295 2.663 7.993-.134 36.516-1.374 42.047-5.174 7.632-5.25 11.276-16.188 2.155-19.274-7.189-2.43-12.222 7.368-12.222 7.368s1.782-16.904-9.806-19.267c-15.751-3.213-27.156 12.368-27.156 12.368S149.895.001 123.557 0c-.975 0-1.972.04-2.996.12" data-name="Clip 121" transform="translate(.403 .968)"/></clipPath><clipPath id="z"><path d="M120.561.12c-28.651 2.268-30.24 26.572-30.24 26.572s-22.754-12.671-42.5-10.589c-19.746 2.081-24.83 19.42-24.83 19.42S16.02 30.34 10.6 33.29C5.18 36.238-5.661 45.846 3.63 49.787c25.648 10.878 135.515 3.078 160.295 2.663 7.993-.134 36.516-1.374 42.047-5.174 7.632-5.25 11.276-16.188 2.155-19.274-7.189-2.43-12.222 7.368-12.222 7.368s1.782-16.904-9.806-19.267c-15.751-3.213-27.156 12.368-27.156 12.368S149.895.001 123.557 0c-.975 0-1.972.04-2.996.12" data-name="Clip 124" transform="translate(.403 .968)"/></clipPath><clipPath id="A"><path d="M120.561.12c-28.651 2.268-30.24 26.572-30.24 26.572s-22.754-12.671-42.5-10.589c-19.746 2.081-24.83 19.42-24.83 19.42S16.02 30.34 10.6 33.29C5.18 36.238-5.661 45.846 3.63 49.787c25.648 10.878 135.515 3.078 160.295 2.663 7.993-.134 36.516-1.374 42.047-5.174 7.632-5.25 11.276-16.188 2.155-19.274-7.189-2.43-12.222 7.368-12.222 7.368s1.782-16.904-9.806-19.267c-15.751-3.213-27.156 12.368-27.156 12.368S149.895.001 123.557 0c-.975 0-1.972.04-2.996.12Z" data-name="Clip 127" transform="translate(.403 .968)"/></clipPath><clipPath id="B"><path d="M120.561.12c-28.651 2.268-30.24 26.572-30.24 26.572s-22.754-12.671-42.5-10.589c-19.746 2.081-24.83 19.42-24.83 19.42S16.02 30.34 10.6 33.29C5.18 36.238-5.661 45.846 3.63 49.787c25.648 10.878 135.515 3.078 160.295 2.663 7.993-.134 36.516-1.374 42.047-5.174 7.632-5.25 11.276-16.188 2.155-19.274-7.189-2.43-12.222 7.368-12.222 7.368s1.782-16.904-9.806-19.267c-15.751-3.213-27.156 12.368-27.156 12.368S149.895.001 123.557 0c-.975 0-1.972.04-2.996.12" data-name="Clip 130" transform="translate(.403 .968)"/></clipPath><clipPath id="C"><path d="M120.561.12c-28.651 2.268-30.24 26.572-30.24 26.572s-22.754-12.671-42.5-10.589c-19.746 2.081-24.83 19.42-24.83 19.42S16.02 30.34 10.6 33.29C5.18 36.238-5.661 45.846 3.63 49.787c25.648 10.878 135.515 3.078 160.295 2.663 7.993-.134 36.516-1.374 42.047-5.174 7.632-5.25 11.276-16.188 2.155-19.274-7.189-2.43-12.222 7.368-12.222 7.368s1.782-16.904-9.806-19.267c-15.751-3.213-27.156 12.368-27.156 12.368S149.895.001 123.557 0c-.975 0-1.972.04-2.996.12" data-name="Clip 133" transform="translate(.403 .968)"/></clipPath><clipPath id="D"><path d="M120.561.12c-28.651 2.268-30.24 26.572-30.24 26.572s-22.754-12.671-42.5-10.589c-19.746 2.081-24.83 19.42-24.83 19.42S16.02 30.34 10.6 33.29C5.18 36.238-5.661 45.846 3.63 49.787c25.648 10.878 135.515 3.078 160.295 2.663 7.993-.134 36.516-1.374 42.047-5.174 7.632-5.25 11.276-16.188 2.155-19.274-7.189-2.43-12.222 7.368-12.222 7.368s1.782-16.904-9.806-19.267c-15.751-3.213-27.156 12.368-27.156 12.368S149.895.001 123.557 0c-.975 0-1.972.04-2.996.12" data-name="Clip 136" transform="translate(.403 .968)"/></clipPath><clipPath id="E"><path d="M120.561.12c-28.651 2.268-30.24 26.572-30.24 26.572s-22.754-12.671-42.5-10.589c-19.746 2.081-24.83 19.42-24.83 19.42S16.02 30.34 10.6 33.29C5.18 36.238-5.661 45.846 3.63 49.787c25.648 10.878 135.515 3.078 160.295 2.663 7.993-.134 36.516-1.374 42.047-5.174 7.632-5.25 11.276-16.188 2.155-19.274-7.189-2.43-12.222 7.368-12.222 7.368s1.782-16.904-9.806-19.267c-15.751-3.213-27.156 12.368-27.156 12.368S149.895.001 123.557 0c-.975 0-1.972.04-2.996.12" data-name="Clip 139" transform="translate(.403 .968)"/></clipPath><clipPath id="F"><path d="M0 278h500V0H0v278Z" data-name="Clip 170"/></clipPath><clipPath id="G"><path d="M0 0v32.654h44.299S38.937 0 33.294 0H0Z" data-name="Clip 190" transform="translate(.165 .221)"/></clipPath><clipPath id="H"><path d="M0 0v32.654h44.299S38.937 0 33.294 0" data-name="Clip 193" transform="translate(.165 .221)"/></clipPath><clipPath id="I"><path d="M0 0v32.654h44.299S38.937 0 33.294 0" data-name="Clip 196" transform="translate(.165 .221)"/></clipPath><clipPath id="J"><path d="M0 0v32.654h44.299S38.937 0 33.294 0" data-name="Clip 199" transform="translate(.165 .221)"/></clipPath><clipPath id="K"><path d="M0 0v32.654h44.299S38.937 0 33.294 0" data-name="Clip 202" transform="translate(.165 .221)"/></clipPath><clipPath id="L"><path d="M0 0v32.654h44.299S38.937 0 33.294 0" data-name="Clip 205" transform="translate(.165 .221)"/></clipPath><clipPath id="M"><path d="M0 0v32.654h44.299S38.937 0 33.294 0" data-name="Clip 208" transform="translate(.165 .221)"/></clipPath><clipPath id="N"><path d="M0 0v32.654h44.299S38.937 0 33.294 0" data-name="Clip 211" transform="translate(.165 .221)"/></clipPath><clipPath id="O"><path d="M0 0v32.654h44.299S38.937 0 33.294 0" data-name="Clip 214" transform="translate(.165 .221)"/></clipPath><clipPath id="P"><path d="M0 0v32.654h44.299S38.937 0 33.294 0" data-name="Clip 217" transform="translate(.165 .221)"/></clipPath><clipPath id="Q"><path d="M0 0v32.654h44.299S38.937 0 33.294 0" data-name="Clip 220" transform="translate(.165 .221)"/></clipPath><clipPath id="R"><path d="M0 0v32.654h44.299S38.937 0 33.294 0" data-name="Clip 223" transform="translate(.165 .221)"/></clipPath><clipPath id="S"><path d="M0 0v32.654h44.299S38.937 0 33.294 0" data-name="Clip 226" transform="translate(.165 .221)"/></clipPath><clipPath id="T"><path d="M0 0v32.654h44.299S38.937 0 33.294 0H0Z" data-name="Clip 229" transform="translate(.165 .221)"/></clipPath><clipPath id="U"><path d="M0 0v32.654h44.299S38.937 0 33.294 0" data-name="Clip 232" transform="translate(.165 .221)"/></clipPath><clipPath id="V"><path d="M0 0v32.654h44.299S38.937 0 33.294 0" data-name="Clip 235" transform="translate(.165 .221)"/></clipPath><clipPath id="W"><path d="M0 0v32.654h44.299S38.937 0 33.294 0" data-name="Clip 238" transform="translate(.165 .221)"/></clipPath><clipPath id="X"><path d="M0 0v32.654h44.299S38.937 0 33.294 0" data-name="Clip 241" transform="translate(.165 .221)"/></clipPath><clipPath id="Y"><path d="M0 0v32.654h44.299S38.937 0 33.294 0" data-name="Clip 244" transform="translate(.165 .221)"/></clipPath><clipPath id="Z"><path d="M0 0v32.654h44.299S38.937 0 33.294 0H0Z" data-name="Clip 247" transform="translate(.165 .221)"/></clipPath><clipPath id="aa"><path d="M0 0v32.654h44.299S38.937 0 33.294 0H0Z" data-name="Clip 250" transform="translate(.165 .221)"/></clipPath><clipPath id="ab"><path d="M0 0v32.654h44.299S38.937 0 33.294 0" data-name="Clip 253" transform="translate(.165 .221)"/></clipPath><clipPath id="ac"><path d="M0 0v32.654h44.299S38.937 0 33.294 0" data-name="Clip 256" transform="translate(.165 .221)"/></clipPath><clipPath id="ad"><path d="M0 0v32.654h44.299S38.937 0 33.294 0" data-name="Clip 259" transform="translate(.165 .221)"/></clipPath><clipPath id="ae"><path d="M0 0v32.654h44.299S38.937 0 33.294 0" data-name="Clip 262" transform="translate(.165 .221)"/></clipPath><clipPath id="af"><path d="M0 0v32.654h44.299S38.937 0 33.294 0" data-name="Clip 265" transform="translate(.165 .221)"/></clipPath></defs></svg>